<svg xmlns="http://www.w3.org/2000/svg" width="21.762" height="21.762" viewBox="0 0 21.762 21.762">
  <path id="Icon_awesome-info-circle" data-name="Icon awesome-info-circle" d="M11.443.563A10.881,10.881,0,1,0,22.324,11.443,10.883,10.883,0,0,0,11.443.563Zm0,4.826A1.843,1.843,0,1,1,9.6,7.231,1.843,1.843,0,0,1,11.443,5.389ZM13.9,16.533a.527.527,0,0,1-.526.526H9.513a.527.527,0,0,1-.526-.526V15.48a.527.527,0,0,1,.526-.526h.526V12.145H9.513a.527.527,0,0,1-.526-.526V10.566a.527.527,0,0,1,.526-.526h2.808a.527.527,0,0,1,.526.526v4.387h.526a.527.527,0,0,1,.526.526Z" transform="translate(-0.563 -0.563)" fill="#ffa780"/>
</svg>
