<svg xmlns="http://www.w3.org/2000/svg" width="17.04" height="16.608" viewBox="0 0 17.04 16.608">
  <path id="Icon_awesome-arrow-right" data-name="Icon awesome-arrow-right" d="M7.245,3.76l.844-.844a.909.909,0,0,1,1.289,0L16.772,10.3a.909.909,0,0,1,0,1.289L9.378,18.987a.909.909,0,0,1-1.289,0l-.844-.844a.914.914,0,0,1,.015-1.3l4.583-4.366H.913A.911.911,0,0,1,0,11.56V10.343A.911.911,0,0,1,.913,9.43h10.93L7.26,5.064A.907.907,0,0,1,7.245,3.76Z" transform="translate(0 -2.647)" fill="#f0f1f7"/>
</svg>
