<svg xmlns="http://www.w3.org/2000/svg" width="83" height="83" viewBox="0 0 83 83">
  <g id="Crown" transform="translate(0 6)">
    <rect id="Rectangle" width="83" height="83" transform="translate(0 -6)" fill="#0026bc" opacity="0"/>
    <path id="Stroke-1" d="M29.324,32.261c-20.941,0-24.165-2.158-24.165-8.63S8.384,15,29.324,15s24.165,2.158,24.165,8.63S50.265,32.261,29.324,32.261Z" transform="translate(12.651 36.782)" fill="none" stroke="#0026bc" stroke-linecap="round" stroke-linejoin="round" stroke-width="7" fill-rule="evenodd"/>
    <path id="Stroke-3" d="M51.292,46.014c3.694-10.46,11.116-32.657,8.492-32.657-3.452,0-17.261,10.356-17.261,10.356S35.619,3,32.167,3,21.81,23.713,21.81,23.713,8,13.356,4.55,13.356c-2.624,0,4.8,22.2,8.492,32.657" transform="translate(9.809 7.356)" fill="none" stroke="#0026bc" stroke-linecap="round" stroke-linejoin="round" stroke-width="7" fill-rule="evenodd"/>
    <path id="Fill-5" d="M18.063,13.452A3.452,3.452,0,1,1,14.611,10a3.449,3.449,0,0,1,3.452,3.452" transform="translate(27.364 24.521)" fill="#0026bc" fill-rule="evenodd"/>
  </g>
</svg>
