<svg id="Layer_2" data-name="Layer 2" xmlns="http://www.w3.org/2000/svg" width="43" height="43" viewBox="0 0 43 43">
  <g id="people">
    <rect id="Rectangle_987" data-name="Rectangle 987" width="43" height="43" fill="#8c96cf" opacity="0"/>
    <path id="Tracé_236" data-name="Tracé 236" d="M12.209,17.418A7.209,7.209,0,1,0,5,10.209,7.209,7.209,0,0,0,12.209,17.418Z" transform="translate(4.011 2.407)" fill="#8c96cf"/>
    <path id="Tracé_237" data-name="Tracé 237" d="M19.407,17.814A5.407,5.407,0,1,0,14,12.407,5.407,5.407,0,0,0,19.407,17.814Z" transform="translate(11.232 5.616)" fill="#8c96cf"/>
    <path id="Tracé_238" data-name="Tracé 238" d="M36.243,25.608a1.8,1.8,0,0,0,1.8-1.8,9.011,9.011,0,0,0-14.526-7.119A12.616,12.616,0,0,0,2,25.608a1.8,1.8,0,0,0,1.8,1.8H25.429a1.8,1.8,0,0,0,1.8-1.8" transform="translate(1.605 10.437)" fill="#8c96cf"/>
  </g>
</svg>
