<svg id="book-open" xmlns="http://www.w3.org/2000/svg" width="44" height="44" viewBox="0 0 44 44">
  <rect id="Rectangle_985" data-name="Rectangle 985" width="44" height="44" transform="translate(44 44) rotate(180)" fill="#8c96cf" opacity="0"/>
  <path id="Tracé_232" data-name="Tracé 232" d="M27.667,4.564a2.273,2.273,0,0,0-1.98-.422L13,7.406V33.568l13.86-3.557a2.292,2.292,0,0,0,1.723-2.237V6.361a2.292,2.292,0,0,0-.917-1.8Z" transform="translate(10.833 3.392)" fill="#8c96cf"/>
  <path id="Tracé_233" data-name="Tracé 233" d="M18.067,7.4,5.343,4.137A2.328,2.328,0,0,0,3.4,4.559a2.292,2.292,0,0,0-.88,1.833V27.769a2.292,2.292,0,0,0,1.723,2.218l13.823,3.575Z" transform="translate(2.1 3.398)" fill="#8c96cf"/>
</svg>
