<svg id="Layer_2" data-name="Layer 2" xmlns="http://www.w3.org/2000/svg" width="42" height="42" viewBox="0 0 42 42">
  <g id="pie-chart-2">
    <rect id="Rectangle_986" data-name="Rectangle 986" width="42" height="42" fill="#ffa780" opacity="0"/>
    <path id="Tracé_234" data-name="Tracé 234" d="M15.105,16.4H26.639a1.435,1.435,0,0,0,1.435-1.435A12.969,12.969,0,0,0,15.105,2,1.435,1.435,0,0,0,13.67,3.435V14.969A1.435,1.435,0,0,0,15.105,16.4ZM16.54,4.991a10.081,10.081,0,0,1,8.542,8.542H16.54Z" transform="translate(9.968 1.458)" fill="#0026bc"/>
    <path id="Tracé_235" data-name="Tracé 235" d="M34.952,19.3H20.859a1.574,1.574,0,0,1-1.574-1.574V3.595A1.591,1.591,0,0,0,17.522,2,17.292,17.292,0,1,0,36.543,21.025,1.591,1.591,0,0,0,34.952,19.3Z" transform="translate(1.499 1.454)" fill="#0026bc"/>
  </g>
</svg>
