<svg xmlns="http://www.w3.org/2000/svg" xmlns:xlink="http://www.w3.org/1999/xlink" width="951.272" height="596.307" viewBox="0 0 951.272 596.307">
  <defs>
    <filter id="Path" x="809.575" y="126.538" width="141.697" height="156.315" filterUnits="userSpaceOnUse">
      <feOffset dy="3" input="SourceAlpha"/>
      <feGaussianBlur stdDeviation="10" result="blur"/>
      <feFlood flood-opacity="0.051"/>
      <feComposite operator="in" in2="blur"/>
      <feComposite in="SourceGraphic"/>
    </filter>
    <filter id="Path-2" x="658.304" y="6.521" width="180.394" height="168.354" filterUnits="userSpaceOnUse">
      <feOffset dy="3" input="SourceAlpha"/>
      <feGaussianBlur stdDeviation="10" result="blur-2"/>
      <feFlood flood-opacity="0.051"/>
      <feComposite operator="in" in2="blur-2"/>
      <feComposite in="SourceGraphic"/>
    </filter>
    <filter id="Path-3" x="709.422" y="195.512" width="128.797" height="128.796" filterUnits="userSpaceOnUse">
      <feOffset dy="3" input="SourceAlpha"/>
      <feGaussianBlur stdDeviation="10" result="blur-3"/>
      <feFlood flood-opacity="0.051"/>
      <feComposite operator="in" in2="blur-3"/>
      <feComposite in="SourceGraphic"/>
    </filter>
    <filter id="Path-4" x="180.373" y="0" width="141.696" height="156.315" filterUnits="userSpaceOnUse">
      <feOffset dy="3" input="SourceAlpha"/>
      <feGaussianBlur stdDeviation="10" result="blur-4"/>
      <feFlood flood-opacity="0.051"/>
      <feComposite operator="in" in2="blur-4"/>
      <feComposite in="SourceGraphic"/>
    </filter>
    <filter id="Rectangle_1003" x="106.5" y="177.806" width="135" height="135" filterUnits="userSpaceOnUse">
      <feOffset dx="-8" dy="3" input="SourceAlpha"/>
      <feGaussianBlur stdDeviation="11.5" result="blur-5"/>
      <feFlood flood-opacity="0.051"/>
      <feComposite operator="in" in2="blur-5"/>
      <feComposite in="SourceGraphic"/>
    </filter>
    <filter id="Rectangle_1003-2" x="55.5" y="215.806" width="107" height="107" filterUnits="userSpaceOnUse">
      <feOffset dx="-8" dy="3" input="SourceAlpha"/>
      <feGaussianBlur stdDeviation="11.5" result="blur-6"/>
      <feFlood flood-opacity="0.051"/>
      <feComposite operator="in" in2="blur-6"/>
      <feComposite in="SourceGraphic"/>
    </filter>
    <filter id="Rectangle_1003-3" x="102.5" y="255.806" width="101" height="101" filterUnits="userSpaceOnUse">
      <feOffset dx="-8" dy="3" input="SourceAlpha"/>
      <feGaussianBlur stdDeviation="11.5" result="blur-7"/>
      <feFlood flood-opacity="0.051"/>
      <feComposite operator="in" in2="blur-7"/>
      <feComposite in="SourceGraphic"/>
    </filter>
  </defs>
  <g id="Groupe_2117" data-name="Groupe 2117" transform="translate(-475 -542.694)">
    <g id="Group" transform="translate(508 610)">
      <g id="women3" transform="translate(288.639 45.617)">
        <g id="kaki" transform="translate(91.563 167.914)">
          <path id="Path-5" data-name="Path" d="M9.548,56.8,0,5.784,29.863,0,39.41,51.018Z" transform="translate(103.319 222.366)" fill="#ffb1b1"/>
          <path id="Path-6" data-name="Path" d="M67.924,15.792A17.3,17.3,0,0,0,52.24,1.773L28.951,0,0,11.34,3.628,23.818a7.866,7.866,0,0,0,9.021,5.531L68.483,18.728Z" transform="translate(111.918 264.862)" fill="#261b65"/>
          <path id="Path-7" data-name="Path" d="M0,11.974.471,13.6a7.641,7.641,0,0,0,8.764,5.373L65.27,8.308l-.726-3.814A16.258,16.258,0,0,0,62.956,0Z" transform="translate(115.13 275.282)" fill="#c3e5fe"/>
          <path id="Path-8" data-name="Path" d="M32.92.731A1.181,1.181,0,0,0,31.379.089L.731,12.725a1.179,1.179,0,1,0,.9,2.181L32.279,2.27A1.18,1.18,0,0,0,32.92.731Z" transform="translate(110.268 262.476)" fill="#c3e5fe"/>
          <path id="Path-9" data-name="Path" d="M4.827,0,0,5.293" transform="translate(155.699 265.984)" fill="none" stroke="#c3e5fe" stroke-linecap="round" stroke-linejoin="round" stroke-miterlimit="10" stroke-width="3"/>
          <path id="Path-10" data-name="Path" d="M4.826,0,0,5.292" transform="translate(148.776 265.357)" fill="none" stroke="#c3e5fe" stroke-linecap="round" stroke-linejoin="round" stroke-miterlimit="10" stroke-width="3"/>
          <path id="Path-11" data-name="Path" d="M25.561,36.572V0H0V36.572Z" transform="translate(24.836 234.372)" fill="#ffb1b1"/>
          <path id="Path-12" data-name="Path" d="M7.257,0H33.627l7.566,17.4H0Z" transform="translate(17.217 269.652)" fill="#261b65"/>
          <path id="Path-13" data-name="Path" d="M0,0H41.193V6.5H0Z" transform="translate(17.217 286.932)" fill="#c3e5fe"/>
          <path id="Path-14" data-name="Path" d="M0,1.142A1.18,1.18,0,0,1,1.217,0l9.7.311a1.18,1.18,0,1,1-.075,2.358l-9.7-.311A1.18,1.18,0,0,1,0,1.142Z" transform="translate(32.437 272.222)" fill="#c3e5fe"/>
          <path id="Path-15" data-name="Path" d="M0,1.18A1.18,1.18,0,0,1,1.18,0H26.473a1.18,1.18,0,1,1,0,2.359H1.18A1.18,1.18,0,0,1,0,1.18Z" transform="translate(23.987 268.288)" fill="#c3e5fe"/>
          <path id="Path-16" data-name="Path" d="M0,1.142A1.181,1.181,0,0,1,1.218,0l9.695.311a1.18,1.18,0,1,1-.075,2.358l-9.7-.311A1.18,1.18,0,0,1,0,1.142Z" transform="translate(32.269 276.989)" fill="#c3e5fe"/>
          <path id="Path-17" data-name="Path" d="M19.725,0l82.188,2.359,38.2,233.388a6.146,6.146,0,0,1-5.843,7.134L12.73,247.245A12.289,12.289,0,0,1,.044,233.934Z" transform="translate(0 9.045)" fill="#261b65"/>
          <path id="Path-18" data-name="Path" d="M1.722,3.932,84.3,0l1.609,11.8a4.916,4.916,0,0,1-4.8,5.579L4.983,18.4a4.915,4.915,0,0,1-4.9-5.829Z" transform="translate(17.61 0)" fill="#120a3e"/>
        </g>
        <g id="kepala" transform="translate(111.989 0)">
          <path id="Path-19" data-name="Path" d="M4.044,1.857,36.63,0,46.57,23.263a7.865,7.865,0,0,1-7.233,10.954H7.866a7.864,7.864,0,0,1-7.753-9.18Z" transform="translate(0.595 14.903)" fill="#273238"/>
          <path id="Path-20" data-name="Path" d="M0,0,24.746,4.291,30.017,21.62A12.9,12.9,0,1,1,4.976,27.658Z" transform="translate(9.769 32.245)" fill="#ffb1b1"/>
          <circle id="Oval" cx="12.383" cy="12.383" r="12.383" transform="matrix(0.98, 0.201, -0.201, 0.98, 10.4, 6.192)" fill="#ff566a"/>
          <path id="Path-21" data-name="Path" d="M28.757,13.9c-.236,2.771-6.491,3.585-10.1,2.545C3.844,12.165,3.485,11.987.633,2.552L0,0,25.417,1.735Z" transform="translate(9.653 35.601)" fill="#d18080"/>
          <circle id="Oval-2" data-name="Oval" cx="5.639" cy="5.639" r="5.639" transform="translate(1.236 20.893) rotate(6.291)" fill="#ffb1b1"/>
          <circle id="Oval-3" data-name="Oval" cx="2.359" cy="2.359" r="2.359" transform="translate(2.836 30.672)" fill="#ffb84c"/>
          <circle id="Oval-4" data-name="Oval" cx="2.82" cy="2.82" r="2.82" transform="translate(3.18 23.773) rotate(6.291)" fill="#d18080"/>
          <circle id="Oval-5" data-name="Oval" cx="5.639" cy="5.639" r="5.639" transform="translate(32.647 19.104) rotate(6.291)" fill="#ffb1b1"/>
          <circle id="Oval-6" data-name="Oval" cx="2.359" cy="2.359" r="2.359" transform="translate(38.227 28.313)" fill="#ffb84c"/>
          <circle id="Oval-7" data-name="Oval" cx="2.82" cy="2.82" r="2.82" transform="translate(35.373 21.939) rotate(6.291)" fill="#d18080"/>
          <rect id="Rectangle" width="33.197" height="46.216" rx="13.507" transform="translate(3.082 3.252) rotate(-5.622)" fill="#ffb1b1"/>
          <path id="Path-22" data-name="Path" d="M33.807,21.964l-.688-6.99A16.6,16.6,0,1,0,.081,18.227l.624,6.347c2.194-2.712,1.5-2.769,2.668-5.664,2.415-5.992,1.958-8.323,6.207-8.571C12.983,10.139,29.85,13.516,33.807,21.964Z" transform="translate(4.627 1.544)" fill="#273238"/>
          <circle id="Oval-8" data-name="Oval" cx="1.553" cy="1.553" r="1.553" transform="matrix(0.999, -0.042, 0.042, 0.999, 10.791, 26.89)" fill="#273238"/>
          <circle id="Oval-9" data-name="Oval" cx="1.553" cy="1.553" r="1.553" transform="matrix(0.999, -0.042, 0.042, 0.999, 24.923, 26.084)" fill="#273238"/>
          <path id="Path-23" data-name="Path" d="M4.438,10.83a.787.787,0,0,0,.723-.9L3.731.666A.786.786,0,0,0,2.188.612L.02,10.122a.787.787,0,0,0,.822.96Z" transform="translate(16.147 26.225)" fill="#cb4d4d"/>
          <path id="Path-24" data-name="Path" d="M6.373,0,0,.269C.854,4.49,5.878,4.278,6.373,0Z" transform="translate(18.48 39.278)" fill="#fff"/>
          <path id="Path-25" data-name="Path" d="M0,1.582A1.18,1.18,0,0,1,1.113.337L7,0a1.18,1.18,0,1,1,.134,2.356l-5.889.335A1.18,1.18,0,0,1,0,1.582Z" transform="translate(22.661 17.218)" fill="#273238"/>
          <path id="Path-26" data-name="Path" d="M0,1.582A1.18,1.18,0,0,1,1.113.338L7,0a1.18,1.18,0,1,1,.134,2.356l-5.889.335A1.18,1.18,0,0,1,0,1.582Z" transform="translate(7.743 18.068)" fill="#273238"/>
        </g>
        <g id="body" transform="translate(95.665 53.48)">
          <path id="Path-27" data-name="Path" d="M.5,48.32A41.782,41.782,0,0,1,41.578.145L70.155,0l20.72,115.065a6.145,6.145,0,0,1-6.047,7.233H17.222a6.144,6.144,0,0,1-6.072-5.2Z" transform="translate(4.059 0.393)" fill="#c3e5fe"/>
          <path id="Path-28" data-name="Path" d="M0,5.661,20.946,27.8a15.73,15.73,0,0,0,23.378-.581l18.7-21.851L62.059,0,16.022.235A26.569,26.569,0,0,0,0,5.661Z" transform="translate(12.157 0.393)" fill="#ffb1b1"/>
          <path id="Path-29" data-name="Path" d="M.3.011A.394.394,0,0,1,.776.3,35.524,35.524,0,0,0,6.165,12.293c2.627,3.628,5.959,6.212,9.8,6.212s7.461-2.6,10.362-6.227A32.414,32.414,0,0,0,32.257.3a.394.394,0,1,1,.766.183A33.235,33.235,0,0,1,26.945,12.77c-2.957,3.7-6.766,6.522-10.976,6.522S8.212,16.461,5.529,12.756A36.35,36.35,0,0,1,.011.485.394.394,0,0,1,.3.011Z" transform="translate(26.633 1.157)" fill="#fff"/>
          <path id="Path-30" data-name="Path" d="M0,100.908.534.393,29.241,0l17.3,139.208A38.861,38.861,0,0,1,0,100.908Z" transform="translate(56.771 0)" fill="#ffb84c"/>
          <path id="Path-31" data-name="Path" d="M20.651,82.188,3.664,57.153A21.231,21.231,0,0,1,.7,39.81L11.213,0l4.719,39.717Z" transform="translate(73.227 46.403)" fill="#ff9f3b"/>
          <circle id="Oval-10" data-name="Oval" cx="2.753" cy="2.753" r="2.753" transform="translate(64.778 103.029)" fill="#ff9f3b"/>
          <path id="Path-32" data-name="Path" d="M33.669,112.194,27.812,0H14.442L.028,134.656a4.933,4.933,0,0,0,4.419,5.434A26.636,26.636,0,0,0,33.669,112.194Z" transform="translate(0 0.393)" fill="#ffb84c"/>
          <path id="Path-33" data-name="Path" d="M3.415.005A1.572,1.572,0,0,1,5.107,1.449l-1.568.124,1.568-.124.033.414c.021.272.053.672.093,1.187.081,1.032.2,2.525.342,4.374.286,3.7.68,8.809,1.106,14.48C7.533,33.241,8.517,46.82,9.042,55.748a1.577,1.577,0,0,1-.031.417l-5.9,27.92a1.573,1.573,0,0,1-3.078-.65L5.889,55.723c-.526-8.9-1.5-22.334-2.345-33.583-.426-5.668-.82-10.779-1.106-14.473C2.3,5.82,2.179,4.327,2.1,3.3,2.057,2.781,2.025,2.382,2,2.11L1.971,1.7l1.555-.123L1.971,1.7A1.574,1.574,0,0,1,3.415.005Z" transform="translate(61.631 5.112)" fill="#ff9f3b"/>
          <path id="Path-34" data-name="Path" d="M4,0A1.572,1.572,0,0,1,5.5,1.638L3.153,58.465,9.013,86.983a1.573,1.573,0,1,1-3.081.633L.033,58.909A1.586,1.586,0,0,1,0,58.528L2.361,1.508A1.574,1.574,0,0,1,4,0Z" transform="translate(19.161 5.505)" fill="#ff9f3b"/>
        </g>
        <g id="tangan2" transform="translate(0 53.909)">
          <path id="Path-35" data-name="Path" d="M31.679,11.778A21.234,21.234,0,0,1,51.377.011h6.035L50.335,52.266l-23.2,35.392L0,75.467Z" transform="translate(60.167 0)" fill="#ffb84c"/>
          <path id="Path-36" data-name="Path" d="M58.427,52.733A16.451,16.451,0,0,0,58.9,22.656L9.888,0,0,12.864,49.6,51.572A8.775,8.775,0,0,0,58.427,52.733Z" transform="translate(21.433 40.773)" fill="#ffb1b1"/>
          <path id="Path-37" data-name="Path" d="M34.578,17.077l3.173,3.939-7.6,14.331L12.143,24.031a19.357,19.357,0,0,1-7.286-8.3L.39,6.033A4.254,4.254,0,0,1,7.006,1.01l3.658,3.105a9.511,9.511,0,0,0,3.223,1.8l8.5,2.761A25.964,25.964,0,0,1,34.578,17.077Z" transform="translate(0 24.199)" fill="#ffb1b1"/>
          <path id="Path-38" data-name="Path" d="M.382,16.6a1.179,1.179,0,0,1-.071-1.666L13.681.382a1.18,1.18,0,1,1,1.738,1.6L2.048,16.528A1.179,1.179,0,0,1,.382,16.6Z" transform="translate(23.594 42.042)"/>
        </g>
        <g id="tangan1" transform="translate(169.49 53.486)">
          <path id="Path-39" data-name="Path" d="M20.477,1.169A14.77,14.77,0,0,0,.388,18.091L16.675,89.256a4.72,4.72,0,0,0,5.151,3.634L34.8,91.365,29.155,13.23A14.178,14.178,0,0,0,20.477,1.169Z" transform="translate(9.576 69.801)" fill="#ffb1b1"/>
          <path id="Path-40" data-name="Path" d="M31.984,7.345a15.738,15.738,0,0,0-9.709-4.854L0,0V13.061H37.36Z" transform="translate(30.278 149.718)" fill="#ffb1b1"/>
          <path id="Path-41" data-name="Path" d="M32.705,17.027A21.236,21.236,0,0,0,10.409.052L0,.781,6.96,94.974a7.865,7.865,0,0,0,7,7.241l26.088,2.807A7.866,7.866,0,0,0,48.6,95.642Z" transform="translate(0 0)" fill="#ffb84c"/>
          <rect id="Rectangle-2" data-name="Rectangle" width="7.078" height="14.943" rx="2.88" transform="matrix(0.894, -0.449, 0.449, 0.894, 36.739, 158.101)" fill="#ffb1b1"/>
          <circle id="Oval-11" data-name="Oval" cx="3.146" cy="3.146" r="3.146" transform="translate(36.572 86.508)" fill="#ff9f3b"/>
          <circle id="Oval-12" data-name="Oval" cx="3.146" cy="3.146" r="3.146" transform="translate(33.424 76.284)" fill="#ff9f3b"/>
        </g>
      </g>
      <path id="background" d="M0,.5H803.787" transform="translate(2.36 505.996)" fill="none" stroke="#afcce4" stroke-miterlimit="10" stroke-width="1"/>
      <g id="sofa" transform="translate(107.978 261.113)">
        <path id="Path-42" data-name="Path" d="M6.557,0H536.341l12.549,80.75a4.541,4.541,0,0,1-4.449,5.368,7.549,7.549,0,0,1-7.413-6.213L518.157,7.619H24.741l-12.8,73.466A7.549,7.549,0,0,1,4.523,87.3,4.54,4.54,0,0,1,.076,81.931Z" transform="translate(61.901 159.656)" fill="#fff"/>
        <path id="Shape" d="M4.523,87.3a4.5,4.5,0,0,1-3.465-1.625,4.553,4.553,0,0,1-.983-3.743L6.556,0H536.341L548.89,80.75a4.553,4.553,0,0,1-.984,3.743,4.5,4.5,0,0,1-3.464,1.624,7.546,7.546,0,0,1-7.412-6.212L518.158,7.619H24.741l-12.8,73.466A7.547,7.547,0,0,1,4.523,87.3ZM7.284.786.856,82.033l-.008.04a3.769,3.769,0,0,0,.814,3.1,3.719,3.719,0,0,0,2.861,1.343,6.759,6.759,0,0,0,6.638-5.565L24.079,6.833H518.766L537.79,79.706l.007.028.007.03a6.758,6.758,0,0,0,6.638,5.568,3.718,3.718,0,0,0,2.861-1.343,3.766,3.766,0,0,0,.813-3.1v-.01L535.667.786Z" transform="translate(61.901 159.656)" fill="#afcce4"/>
        <path id="Path-43" data-name="Path" d="M0,0,62.919,3.146,53.874,93.985H11.4Z" transform="translate(15.5 27.134)" fill="#fff"/>
        <path id="Shape-2" data-name="Shape" d="M53.874,93.986H11.4L0,0,62.919,3.145l-9.045,90.84ZM.894.832,12.1,93.2H53.163L62.055,3.891.894.832Z" transform="translate(15.5 27.134)" fill="#afcce4"/>
        <path id="Path-44" data-name="Path" d="M62.919,0,0,3.146,7.865,94.378h42.47Z" transform="translate(591.994 27.134)" fill="#fff"/>
        <path id="Shape-3" data-name="Shape" d="M50.335,94.378H7.865L0,3.145,62.919,0,50.335,94.378ZM62.014.833h0L.853,3.891l7.733,89.7h41.06L62.014.833Z" transform="translate(591.994 27.134)" fill="#afcce4"/>
        <path id="Path-45" data-name="Path" d="M13.421,15.129A17.3,17.3,0,0,1,30.587,0H513a17.3,17.3,0,0,1,17.242,15.851l8.89,105.66L0,121.119Z" transform="translate(63.081 0)" fill="#fff"/>
        <path id="Shape-4" data-name="Shape" d="M539.135,121.512,0,121.118,13.42,15.129A17.3,17.3,0,0,1,30.587,0H513a17.3,17.3,0,0,1,17.242,15.851ZM30.587.786A16.55,16.55,0,0,0,14.2,15.228L.893,120.333l537.387.39L529.461,15.917A16.617,16.617,0,0,0,513,.786Z" transform="translate(63.081 0)" fill="#afcce4"/>
        <path id="Path-46" data-name="Path" d="M23.363,127.09,36.594,25.544A22.758,22.758,0,0,0,20.566.806L19.84.589A13.946,13.946,0,0,0,5.657,4.408,20.923,20.923,0,0,0,.008,19.3l2.361,84.973a23.592,23.592,0,0,0,20,22.665Z" transform="translate(0.001 27.061)" fill="#fff"/>
        <path id="Shape-5" data-name="Shape" d="M23.363,127.091h0l-.994-.153a23.581,23.581,0,0,1-20-22.665L.008,19.3A20.923,20.923,0,0,1,5.658,4.408,13.94,13.94,0,0,1,19.84.589l.727.217A22.758,22.758,0,0,1,36.595,25.544L23.364,127.089ZM15.833.787a13.209,13.209,0,0,0-9.6,4.16A20.011,20.011,0,0,0,.795,19.275l2.36,84.975a22.8,22.8,0,0,0,19.332,21.909l.2.032L35.815,25.443A21.891,21.891,0,0,0,20.342,1.559l-.728-.217A13.142,13.142,0,0,0,15.833.787Z" transform="translate(0 27.061)" fill="#afcce4"/>
        <path id="Path-47" data-name="Path" d="M13.423,127.09.192,25.544A22.756,22.756,0,0,1,16.22.806l.726-.218A13.946,13.946,0,0,1,31.128,4.408,20.924,20.924,0,0,1,36.779,19.3l-2.361,84.973a23.6,23.6,0,0,1-20,22.665Z" transform="translate(633.622 27.061)" fill="#fff"/>
        <path id="Shape-6" data-name="Shape" d="M13.42,127.089h0L.19,25.544A22.757,22.757,0,0,1,16.217.806l.727-.217A13.94,13.94,0,0,1,31.126,4.408,20.924,20.924,0,0,1,36.777,19.3l-2.36,84.973a23.586,23.586,0,0,1-20,22.665l-1,.154ZM20.951.787a13.151,13.151,0,0,0-3.782.556l-.726.217A21.892,21.892,0,0,0,.969,25.443L14.1,126.19l.2-.032A22.8,22.8,0,0,0,33.629,104.25L35.99,19.275A20.012,20.012,0,0,0,30.552,4.947,13.205,13.205,0,0,0,20.951.787Z" transform="translate(633.624 27.061)" fill="#afcce4"/>
        <path id="Path-48" data-name="Path" d="M55.188,0H625.521a11.8,11.8,0,0,1,11.564,14.133l-2.461,12.183a15.729,15.729,0,0,1-15.418,12.614H18.117A15.729,15.729,0,0,1,2.7,26.316L.238,14.133A11.8,11.8,0,0,1,11.8,0Z" transform="translate(15.757 120.725)" fill="#fff"/>
        <path id="Shape-7" data-name="Shape" d="M619.2,38.931H18.114A15.73,15.73,0,0,1,2.7,26.316L.236,14.134A11.8,11.8,0,0,1,11.8,0h613.72a11.8,11.8,0,0,1,11.563,14.134l-2.461,12.182A15.729,15.729,0,0,1,619.2,38.931ZM11.8.786A11.01,11.01,0,0,0,1.007,13.978L3.468,26.16A14.988,14.988,0,0,0,18.114,38.145H619.2A14.988,14.988,0,0,0,633.851,26.16l2.462-12.183A11.012,11.012,0,0,0,625.519.786Z" transform="translate(15.759 120.725)" fill="#afcce4"/>
        <path id="Path-49" data-name="Path" d="M7.489,0H612.54l15.119,97.928a5.164,5.164,0,0,1-5.08,6.1,8.606,8.606,0,0,1-8.466-7.055L585.026,8.651H35L13.632,96.738a8.606,8.606,0,0,1-8.466,7.055,5.164,5.164,0,0,1-5.08-6.1Z" transform="translate(23.102 158.87)" fill="#fff"/>
        <path id="Shape-8" data-name="Shape" d="M622.577,104.023a8.6,8.6,0,0,1-8.465-7.054L585.025,8.651H35L13.632,96.738a8.6,8.6,0,0,1-8.466,7.055,5.165,5.165,0,0,1-5.08-6.1L7.488,0H612.539l15.119,97.928a5.165,5.165,0,0,1-5.081,6.1ZM34.383,7.864H585.6l29.281,88.91.01.053a7.815,7.815,0,0,0,7.691,6.409,4.378,4.378,0,0,0,4.308-5.167l0-.01L611.865.786H8.217L.867,97.8l-.008.04a4.378,4.378,0,0,0,4.306,5.167A7.82,7.82,0,0,0,12.858,96.6l0-.022L34.383,7.865Z" transform="translate(23.103 158.87)" fill="#afcce4"/>
      </g>
      <g id="women2" transform="translate(513.076 149.645)">
        <path id="rambut" d="M35.392,7.865,55.84,0,93.592,79.435,0,73.93Z" transform="translate(79.935 10.797)" fill="#273238"/>
        <g id="kaki2" transform="translate(0 175.447)">
          <path id="Path-50" data-name="Path" d="M36.879,5.773,9.62,0,0,59.06l1.181,2.563a7.865,7.865,0,0,0,10.525,3.81l10.872-5.179Z" transform="translate(4.386 118.238)" fill="#ffb1b1"/>
          <path id="Path-51" data-name="Path" d="M29.589,19.483,34.7,0A6.287,6.287,0,0,1,37.31,5.439l-.146,2.748h0L33.777,34.172l-3.01-.16.521-9.857L27.175,35.332l.01-.15c-.2.584-.4,1.129-.591,1.628C23.3,45.19,8.421,47.421,3.958,46.179S-.293,40.923.343,38.441c.484-1.894,1.59-5.459,2.627-8.8l.238-.769a1.938,1.938,0,0,1,2.677-1.02A17.327,17.327,0,0,0,16.76,29.14C23.592,27.7,27.283,22.974,29.589,19.483Z" transform="translate(0 148.707)" fill="#261b65"/>
          <path id="Path-52" data-name="Path" d="M79.242.909l-.023.073,62.539,1.883A38.22,38.22,0,0,1,104.232,52.47L62.63,51.33,36.2,131.563a7.856,7.856,0,0,1-3.42,4.281l-1.209,6.373a2.357,2.357,0,0,1-2.533,1.91L4.151,141.851A2.358,2.358,0,0,1,2.015,139.3l.4-4.525a7.84,7.84,0,0,1-2.358-6.586L12.261,24.315A27.528,27.528,0,0,1,40.237.007L58.281.425,58.3.353,68.724.666Z" transform="translate(8.162 0)" fill="#120a3e"/>
        </g>
        <g id="kaki1" transform="translate(53.226 180.232)">
          <path id="Path-53" data-name="Path" d="M26.691,0,0,8,19.865,64.444l2.264,1.682a7.864,7.864,0,0,0,11.065-1.7l7.06-9.756Z" transform="translate(35.931 116.814)" fill="#ffb1b1"/>
          <path id="Path-54" data-name="Path" d="M18.686,19.55,13.836,0A6.288,6.288,0,0,1,18.73,3.524l1.19,2.482h0L29.4,30.436l-2.72,1.3-4.267-8.9,1.747,11.78-.063-.136c.106.607.194,1.181.261,1.713C25.487,45.127,13.5,54.217,8.986,55.265S2.736,52.691,2.1,50.207C1.622,48.313.883,44.654.191,41.223c-.053-.264-.107-.528-.16-.789a1.937,1.937,0,0,1,1.859-2.178,17.325,17.325,0,0,0,10.164-4.081C17.36,29.637,18.336,23.72,18.686,19.55Z" transform="translate(54.865 141.633)" fill="#261b65"/>
          <path id="Path-55" data-name="Path" d="M0,11.4,29.75,0l3.506,12.506a2.372,2.372,0,0,1-1.649,2.747l-25.6,6.866A2.4,2.4,0,0,1,3.065,20.45Z" transform="translate(36.539 119.992)" fill="#120a3e"/>
          <path id="Path-56" data-name="Path" d="M52.435.642l-.01-.074L41.913.325,31.483.01l-.02.073L28.188.008a27.526,27.526,0,0,0-26.6,36.651L33.94,128.664a7.864,7.864,0,0,0,8.756,5.142l21.658-3.733A6.294,6.294,0,0,0,69.516,123L59.581,51.827l31.015.988a23.594,23.594,0,0,0,24.345-23.582V2.523Z" transform="translate(0 0)" fill="#261b65"/>
        </g>
        <g id="body-2" data-name="body" transform="translate(11.373 24.733)">
          <path id="Path-57" data-name="Path" d="M29.214,16.143l-1.18,16.989-16.8,6.685L1.316,24.908a7.865,7.865,0,0,1-.166-8.45A88.164,88.164,0,0,1,9.473,4.652a3.148,3.148,0,0,1,5.079.472l5.143,7.485L20.974,2.351a2.68,2.68,0,0,1,5.282-.222Z" transform="translate(4.071 11.231)" fill="#ffb1b1"/>
          <path id="Path-58" data-name="Path" d="M4.479.915,19.9,19.49l-9.831,1.966L.314,3.754A2.531,2.531,0,0,1,4.479.915Z" transform="translate(1.08 0)" fill="#ffb1b1"/>
          <path id="Path-59" data-name="Path" d="M37.68,26.082a2.586,2.586,0,1,1-3.167,4.09L2,5,.083,1.137A.787.787,0,0,1,.951.018l4.218.89Z" transform="translate(0 4.943)" fill="#afcce4"/>
          <path id="Path-60" data-name="Path" d="M62.764,25.732A17.082,17.082,0,0,0,34.6,6.53L0,50.566,25.562,89.1Z" transform="translate(31.991 42.067)" fill="#ffb84c"/>
          <path id="Path-61" data-name="Path" d="M.649.3a1.574,1.574,0,0,1,2.2.349L23.688,29.356A1.573,1.573,0,1,1,21.143,31.2L.3,2.5A1.572,1.572,0,0,1,.649.3Z" transform="translate(44.967 79.655)" fill="#ff9f3b"/>
          <path id="Path-62" data-name="Path" d="M0,6.291,18.378,0,47.765,72.14A17.8,17.8,0,0,1,32.318,96.617a15.342,15.342,0,0,1-15.9-12.161Z" transform="translate(13.633 42.277)" fill="#ffb1b1"/>
          <path id="Path-63" data-name="Path" d="M0,16.143l9.831,16.89.786-16.89L7.66,2.128a2.68,2.68,0,0,0-5.282.222Z" transform="translate(22.552 11.231)" fill="#ffb1b1"/>
          <path id="Path-64" data-name="Path" d="M0,0,15.73,12.191,12.584,28.707c-.393,2.359-.565,3.206-1.191,4.077-1.309,1.821-4.406,1.22-6.444-.637l-.871-1.311,2.717-4.323A15.73,15.73,0,0,0,6.009,8.635L3.932,5.9l-.393.393Z" transform="translate(6.824 13.591)" fill="#d18080"/>
          <path id="Path-65" data-name="Path" d="M0,10.748A7.865,7.865,0,0,1,7.34,2.9l42-2.812A39.324,39.324,0,0,1,91.213,41.763L86,125.642,0,112.713Z" transform="translate(70.92 39.299)" fill="#ffb84c"/>
          <path id="Path-66" data-name="Path" d="M15.73,17.3l-.786,31.459L5.505,46.009,0,0Z" transform="translate(144.851 78.476)" fill="#ff9f3b"/>
          <path id="Path-67" data-name="Path" d="M50.71.2a1.573,1.573,0,0,1,.6,2.141L2.946,92A1.573,1.573,0,1,1,.2,90.464L48.569.805A1.573,1.573,0,0,1,50.71.2Z" transform="translate(77.605 50.555)" fill="#ff9f3b"/>
          <path id="Path-68" data-name="Path" d="M1.123.067A1.573,1.573,0,0,1,3.081,1.122L16.844,47.132a1.573,1.573,0,0,1-3.014.9L.066,2.024A1.573,1.573,0,0,1,1.123.067Z" transform="translate(90.189 46.23)" fill="#ff9f3b"/>
        </g>
        <g id="tablet" transform="translate(90.586 102.458)">
          <path id="Path-69" data-name="Path" d="M3.032,7.424A7.865,7.865,0,0,1,11.326.013l36.4,2.044a7.864,7.864,0,0,1,7.411,8.294L52.118,64.118a7.865,7.865,0,0,1-8.294,7.411l-36.4-2.044A7.865,7.865,0,0,1,.013,61.192Z" transform="translate(0 0)" fill="#fff"/>
          <circle id="Oval-13" data-name="Oval" cx="8.258" cy="8.258" r="8.258" transform="translate(20.184 14.515) rotate(8.79)" fill="#e2f0fa"/>
        </g>
        <g id="tangan1-2" data-name="tangan1" transform="translate(86.17 62.205)">
          <path id="Path-70" data-name="Path" d="M47.247,20.609A39.323,39.323,0,0,0,4.952.766L0,1.757,51.2,116.525l8.8.44A22.808,22.808,0,0,0,81.2,83.328Z" transform="translate(51.266 0)" fill="#ffb84c"/>
          <path id="Path-71" data-name="Path" d="M21.824,4.676A18.094,18.094,0,0,0,7.393,4.617L2.2,6.854A1.573,1.573,0,1,1,.953,3.963l5.2-2.235A21.234,21.234,0,0,1,23.09,1.8l8.379,3.685A21.237,21.237,0,0,1,43.9,21.652l.339,2.185a1.573,1.573,0,0,1-3.108.484l-.34-2.185A18.091,18.091,0,0,0,30.2,8.361Z" transform="translate(88.688 76.755)" fill="#ff9f3b"/>
          <path id="Path-72" data-name="Path" d="M94.215,16.275A24.99,24.99,0,0,0,67.6.207L.917,8.808,0,27.6l80.636,6.605A13.328,13.328,0,0,0,94.215,16.275Z" transform="translate(31.531 83.726)" fill="#ffb1b1"/>
          <path id="Path-73" data-name="Path" d="M31.737.258l12,2.151V21.677L14.9,22.806a13.271,13.271,0,0,1-4.8-.7L5.138,20.411a7.59,7.59,0,0,1-4.9-9.08,9.2,9.2,0,0,1,6.8-6.657l18-4.235A16.534,16.534,0,0,1,31.737.258Z" transform="translate(0 89.717)" fill="#ffb1b1"/>
          <rect id="Rectangle-3" data-name="Rectangle" width="8.651" height="25.167" rx="3.52" transform="translate(38.204 88.587) rotate(6.283)" fill="#261b65"/>
          <path id="Path-74" data-name="Path" d="M1.586,6.491A3.539,3.539,0,0,1,5.493.589L16.858,8.113a3.539,3.539,0,0,1-3.908,5.9Z" transform="translate(14.082 81.63)" fill="#ffb1b1"/>
        </g>
        <g id="kepala-2" data-name="kepala" transform="translate(94.431 0)">
          <path id="Path-75" data-name="Path" d="M0,1.8,23.808,0l5.551,22.251L12.147,48.822A3.933,3.933,0,0,1,5,47.484L0,23.431Z" transform="translate(15.189 42.264)" fill="#ffb1b1"/>
          <path id="Path-76" data-name="Path" d="M.134,9.212,24.315,0l-.482,2.284L0,21.349Z" transform="translate(15.119 40.749)" fill="#d18080"/>
          <path id="Path-77" data-name="Path" d="M43.218,24.6A20.389,20.389,0,1,0,3.036,17.861L.062,41.594a7.865,7.865,0,0,0,6.862,8.787l30.094,3.63Z" transform="translate(0 0.043)" fill="#ffb1b1"/>
          <path id="Path-78" data-name="Path" d="M39.34,26.527c-2.6.949-5.325-1.095-8.258-1.095-8.767,0-17.332-5.722-21.628-12.669-1.278.367-3.539,1.354-5.9,2.287a3.5,3.5,0,0,1-3.555,0A20.241,20.241,0,0,1,25.016.757c10.4,2.911,17.077,12.793,14.575,24.675Z" transform="translate(3.576)" fill="#273238"/>
          <path id="Path-79" data-name="Path" d="M2.234,0H8.526L3.608,11.375a1.881,1.881,0,0,1-3.566-1.14Z" transform="translate(31.771 24.168)" fill="#273238"/>
          <path id="Path-80" data-name="Path" d="M9.542,5.8a4.774,4.774,0,1,1-9.536.467C-.127,3.626,1.949.131,4.582,0S9.408,3.159,9.542,5.8Z" transform="translate(35.869 25.191)" fill="#ffb1b1"/>
          <path id="Path-81" data-name="Path" d="M4.009,2.566A2.005,2.005,0,1,1,0,2.763C-.054,1.654.707.055,1.813,0S3.954,1.459,4.009,2.566Z" transform="translate(38.634 28.494)" fill="#d18080"/>
          <circle id="Oval-14" data-name="Oval" cx="1.558" cy="1.558" r="1.558" transform="translate(13.787 26.794) rotate(28.792)" fill="#273238"/>
          <circle id="Oval-15" data-name="Oval" cx="1.558" cy="1.558" r="1.558" transform="translate(4.301 23.556) rotate(28.792)" fill="#273238"/>
          <path id="Path-82" data-name="Path" d="M.2,6.147C-1.015,4.568,3.648,1.391,6.131,0L5.392,6.836A1.411,1.411,0,0,1,3.564,8.085,7.56,7.56,0,0,1,.2,6.147Z" transform="translate(2.037 28.662)" fill="#cb4d4d"/>
          <path id="Shape-9" data-name="Shape" d="M17.18,8.868a1.174,1.174,0,0,1-.994-.538l-.164-.255a6.624,6.624,0,0,0-4.811-3l-.489-.059a1.165,1.165,0,0,1-.786-.44,1.127,1.127,0,0,1-.234-.84,1.163,1.163,0,0,1,1.16-1.009,1.213,1.213,0,0,1,.145.009L11.5,2.8a8.961,8.961,0,0,1,6.51,4.055l.164.255a1.12,1.12,0,0,1,.152.861,1.142,1.142,0,0,1-.52.723A1.182,1.182,0,0,1,17.18,8.868ZM5.775,3.379a1.18,1.18,0,0,1-.7-.229l-.155-.114a3.82,3.82,0,0,0-3.163-.629l-.3.074a1.2,1.2,0,0,1-.284.034A1.164,1.164,0,0,1,.035,1.644,1.123,1.123,0,0,1,.163.782,1.159,1.159,0,0,1,.888.251l.3-.074A6.2,6.2,0,0,1,6.325,1.2l.155.114A1.135,1.135,0,0,1,6.713,2.92,1.17,1.17,0,0,1,5.775,3.379Z" transform="translate(4.106 17.097)" fill="#273238"/>
          <path id="Path-83" data-name="Path" d="M.062,0,5.991,1.916C4.085,5.666-.589,4.156.062,0Z" transform="translate(4.528 40.331)" fill="#fff"/>
        </g>
      </g>
      <g id="women1" transform="translate(173.6 148.345)">
        <g id="body2" transform="translate(20.8 52.571)">
          <path id="Path-84" data-name="Path" d="M97.112,36A28.266,28.266,0,0,0,72.234,3.379L42.218.15A25.807,25.807,0,0,0,13.918,22.1L.064,117.588a6.146,6.146,0,0,0,5.523,7L75.948,131a6.146,6.146,0,0,0,6.624-5.138Z" transform="translate(0 4.57)" fill="#e2f0fa"/>
          <path id="Path-85" data-name="Path" d="M38.318,27.63,23.75,163.24a4.863,4.863,0,0,1-4.836,4.344A18.914,18.914,0,0,1,.041,147.435L4.227,0,18.4,1.783A23.594,23.594,0,0,1,38.318,27.63Z" transform="translate(70.745 8.289)" fill="#ff566a"/>
          <path id="Path-86" data-name="Path" d="M0,22.415,1.18,0l5.9,1.966L5.112,22.415Z" transform="translate(94.243 103.453)" fill="#ec3d52"/>
          <path id="Path-87" data-name="Path" d="M4.773,0A1.572,1.572,0,0,0,3.145,1.516L0,134.045a1.573,1.573,0,1,0,3.143.113L6.289,1.629A1.573,1.573,0,0,0,4.773,0Z" transform="translate(77.726 25.648)" fill="#ec3d52"/>
          <path id="Path-88" data-name="Path" d="M32.755,23.457A31.459,31.459,0,0,0,6.608.873L0,0,16.339,94.306a16.264,16.264,0,0,0,20.349,12.9A18.976,18.976,0,0,0,49.894,83.726Z" transform="translate(83.397 9.412)" fill="#ff566a"/>
          <path id="Path-89" data-name="Path" d="M0,23.938,1.762,38.072,17.98,47.613,27.9,32.7a7.863,7.863,0,0,0,.167-8.45l-5.148-8.442L27.262,3.368A2.533,2.533,0,0,0,22.782,1.1L9.519,20.405,8.24,10.145a2.68,2.68,0,0,0-5.282-.221Z" transform="translate(138.284 0)" fill="#ffb1b1"/>
          <path id="Path-90" data-name="Path" d="M0,70.632,10.414,80.963a17.3,17.3,0,0,0,27.774-4.774L66.578,17.253a6.292,6.292,0,0,0-3-8.429L45.2.223a2.359,2.359,0,0,0-3.017.913Z" transform="translate(94.16 30.409)" fill="#ff566a"/>
          <path id="Path-91" data-name="Path" d="M.159.884a1.574,1.574,0,0,1,2.1-.725L20.1,8.846a1.573,1.573,0,1,1-1.378,2.828L.884,2.988A1.574,1.574,0,0,1,.159.884Z" transform="translate(135.942 36.629)" fill="#ec3d52"/>
          <path id="Path-92" data-name="Path" d="M0,39.717,16.516,9.831,13.37,0Z" transform="translate(106.037 44.467)" fill="#ec3d52"/>
        </g>
        <g id="kaki2-2" data-name="kaki2" transform="translate(44.178 177.307)">
          <path id="Path-93" data-name="Path" d="M0,1.573,38.538,0,46.4,45.223H14.943Z" transform="translate(124.343 135.227)" fill="#ffb1b1"/>
          <path id="Path-94" data-name="Path" d="M19.877,6.688A6.683,6.683,0,0,1,26.556,0a11.976,11.976,0,0,1,5.072,1.127l31.862,14.9a5.532,5.532,0,0,1-2.337,10.544l-51.382.016a5.983,5.983,0,0,1-5.278-3.162L.709,16.353A5.98,5.98,0,0,1,0,13.53V11.982A11.934,11.934,0,0,1,.887,7.443l18.99-.006Z" transform="translate(138.392 172.443)" fill="#120a3e"/>
          <path id="Path-95" data-name="Path" d="M62.637,0a5.444,5.444,0,0,1,1.112,2.119,5.506,5.506,0,0,1-5.332,6.91L7.2,9.132A5.943,5.943,0,0,1,1.949,6.008L0,2.379a5.9,5.9,0,0,0,.936.071l57.191-.114A5.511,5.511,0,0,0,62.637,0Z" transform="translate(141.147 189.98)" fill="#b5d5ff"/>
          <path id="Path-96" data-name="Path" d="M92.383,0,.475,3.083A42.82,42.82,0,0,0,44,52.183l62.072-1.7Z" transform="translate(0 0.408)" fill="#120a3e"/>
          <path id="Path-97" data-name="Path" d="M0,.965l55.333,163.29a7.866,7.866,0,0,0,9.239,5.134l29.078-6.794a6.292,6.292,0,0,0,4.713-7.481L68.93,21.6A27.526,27.526,0,0,0,41.413.007Z" transform="translate(71.44 0)" fill="#120a3e"/>
        </g>
        <g id="kaki1-2" data-name="kaki1" transform="translate(19.123 181.876)">
          <path id="Path-98" data-name="Path" d="M0,3.146,35.392,0,40.9,55.447,13.37,60.953Z" transform="translate(84.906 134.591)" fill="#ffb1b1"/>
          <path id="Path-99" data-name="Path" d="M62.527.911l-.01-.073L73.057.594l10.4-.312.02.071L98.409.007a27.529,27.529,0,0,1,28.164,27.52V158.655a3.933,3.933,0,0,1-2.979,3.814L95.069,169.6A8.652,8.652,0,0,1,84.4,162.372L69.4,51.65,24.347,53.085A23.594,23.594,0,0,1,0,29.5V2.793Z" transform="translate(0)" fill="#261b65"/>
          <path id="Path-100" data-name="Path" d="M19.877,6.688A6.681,6.681,0,0,1,26.555,0a11.978,11.978,0,0,1,5.073,1.127l31.862,14.9a5.532,5.532,0,0,1-2.337,10.544l-51.382.016a5.988,5.988,0,0,1-5.279-3.162L.709,16.353A6,6,0,0,1,0,13.53V11.982A11.934,11.934,0,0,1,.887,7.443l18.99-.006Z" transform="translate(93.452 172.111)" fill="#261b65"/>
          <path id="Path-101" data-name="Path" d="M62.637,0a5.444,5.444,0,0,1,1.112,2.119,5.506,5.506,0,0,1-5.332,6.91L7.2,9.132A5.943,5.943,0,0,1,1.949,6.008L0,2.379a5.9,5.9,0,0,0,.936.071l57.191-.114A5.511,5.511,0,0,0,62.637,0Z" transform="translate(96.205 189.648)" fill="#b5d5ff"/>
        </g>
        <g id="body-3" data-name="body" transform="translate(0 55.81)">
          <path id="Path-102" data-name="Path" d="M13.906,170.823l17.032-3.078a11.011,11.011,0,0,0,8.972-9.509L58.927,1.464,43.469,0,.435,156.078A11.8,11.8,0,0,0,13.906,170.823Z" transform="translate(5.834 0)" fill="#ff566a"/>
          <path id="Path-103" data-name="Path" d="M28.313,79.435v-52.3L20.842,0,0,95.951Z" transform="translate(12.8 38.082)" fill="#ec3d52"/>
          <path id="Path-104" data-name="Path" d="M23.057.02a1.572,1.572,0,0,0-1.8,1.305L.02,134.241a1.573,1.573,0,0,0,3.107.5L24.362,1.822A1.573,1.573,0,0,0,23.057.02Z" transform="translate(32.855 18.089)" fill="#ec3d52"/>
          <path id="Path-105" data-name="Path" d="M57.235.727A34.049,34.049,0,0,0,17.279,25.608L.6,90.761a18.875,18.875,0,0,0,14.957,23.261l12.583,2.255Z" transform="translate(0 0.059)" fill="#ff566a"/>
          <path id="Path-106" data-name="Path" d="M6.642,6.9A7.865,7.865,0,0,1,15.409.06L51.593,4.517a7.864,7.864,0,0,1,6.845,8.767l-6.582,53.45a7.866,7.866,0,0,1-8.768,6.844L6.9,69.122A7.864,7.864,0,0,1,.06,60.355Z" transform="translate(55.383 61.791)" fill="#fff"/>
          <circle id="Oval-16" data-name="Oval" cx="8.258" cy="8.258" r="8.258" transform="translate(78.338 75.194)" fill="#e2f0fa"/>
          <path id="Path-107" data-name="Path" d="M21.739.122C16.619.192,9.755.227,5.9,0L0,23.595l20.725,1.724A3.931,3.931,0,0,0,24.938,22L27.316,6.5A5.556,5.556,0,0,0,21.739.122Z" transform="translate(85.941 100.607)" fill="#ffb1b1"/>
          <path id="Path-108" data-name="Path" d="M2.875,0,.126,22.836A17.3,17.3,0,0,0,14.3,41.944L77.682,53.1a6.293,6.293,0,0,0,7.284-5.079l3.624-20.075a2.359,2.359,0,0,0-1.643-2.679Z" transform="translate(4.45 72.828)" fill="#ff566a"/>
          <path id="Path-109" data-name="Path" d="M6.667.045a1.572,1.572,0,0,1,1.154,1.9L3.1,21.215a1.573,1.573,0,1,1-3.056-.748L4.764,1.2A1.574,1.574,0,0,1,6.667.045Z" transform="translate(81.223 99.883)" fill="#ec3d52"/>
        </g>
        <g id="kepala-3" data-name="kepala" transform="translate(66.278)">
          <path id="Path-110" data-name="Path" d="M27.124,0,1.643,4.053.021,32.541A12.714,12.714,0,1,0,25.412,33.9Z" transform="translate(1.636 29.413)" fill="#ffb1b1"/>
          <path id="Path-111" data-name="Path" d="M8.96,0H0L.366,2.305,8.258,9.831Z" transform="translate(18.876 49.912)" fill="#d18080"/>
          <path id="Path-112" data-name="Path" d="M.879,23.875a18.287,18.287,0,1,1,35.1-10.249l4.138,15.679A16.868,16.868,0,0,1,26.97,50.177l-16.638,3.18Z" transform="translate(3.432 0.88)" fill="#ffb1b1"/>
          <path id="Path-113" data-name="Path" d="M2.292,42.833c-.649-1.643-.626-6.72-.829-8.575L.123,22.085A19.84,19.84,0,0,1,14.594.659,20.363,20.363,0,0,1,37.685,10.981a18.411,18.411,0,0,1-11.9,9.519L17.53,22.705l0,2.063C17.541,33.652,13.3,40.867,2.292,42.833Z" transform="translate(0)" fill="#273238"/>
          <path id="Path-114" data-name="Path" d="M10.583.558A.786.786,0,0,0,9.6.034L.558,2.787a.786.786,0,0,0,.457,1.5L10.06,1.538A.785.785,0,0,0,10.583.558Z" transform="translate(15.337 25.468)" fill="#c3e5fe"/>
          <ellipse id="Oval-17" data-name="Oval" cx="5.25" cy="5.256" rx="5.25" ry="5.256" transform="matrix(0.967, -0.256, 0.256, 0.967, 7.438, 29.085)" fill="#ffb1b1"/>
          <ellipse id="Oval-18" data-name="Oval" cx="2.625" cy="2.628" rx="2.625" ry="2.628" transform="matrix(0.967, -0.256, 0.256, 0.967, 10.65, 30.953)" fill="#d18080"/>
          <circle id="Oval-19" data-name="Oval" cx="1.308" cy="1.308" r="1.308" transform="translate(30.17 27.015) rotate(-28.792)" fill="#273238"/>
          <circle id="Oval-20" data-name="Oval" cx="1.308" cy="1.308" r="1.308" transform="translate(38.136 24.295) rotate(-28.792)" fill="#273238"/>
          <path id="Path-115" data-name="Path" d="M4.983,5.163C6,3.835,2.085,1.167,0,0L.621,5.741A1.183,1.183,0,0,0,2.155,6.79,6.357,6.357,0,0,0,4.983,5.163Z" transform="translate(37.181 27.322)" fill="#cb4d4d"/>
          <path id="Shape-10" data-name="Shape" d="M.983,7.447A.994.994,0,0,1,.461,7.3a.958.958,0,0,1-.436-.606.942.942,0,0,1,.127-.724l.138-.216A7.531,7.531,0,0,1,5.756,2.348l.41-.049a1.016,1.016,0,0,1,.122-.007.978.978,0,0,1,.974.848.945.945,0,0,1-.2.7.978.978,0,0,1-.661.369L6,4.265A5.565,5.565,0,0,0,1.954,6.781l-.137.213A.982.982,0,0,1,.983,7.447Zm9.578-4.609a.984.984,0,0,1-.788-.385.953.953,0,0,1,.2-1.35l.131-.1A5.209,5.209,0,0,1,14.413.149l.253.062a.976.976,0,0,1,.609.446.946.946,0,0,1,.108.724.979.979,0,0,1-.954.731,1,1,0,0,1-.238-.029l-.253-.061a3.2,3.2,0,0,0-2.655.526l-.131.1A.989.989,0,0,1,10.561,2.838Z" transform="translate(25.183 17.61)" fill="#273238"/>
          <path id="Path-116" data-name="Path" d="M4.979,0,0,1.61C1.6,4.759,5.525,3.49,4.979,0Z" transform="translate(35.21 37.123)" fill="#fff"/>
          <path id="Shape-11" data-name="Shape" d="M6.556,13.108a6.556,6.556,0,1,1,3.9-1.288A6.555,6.555,0,0,1,6.556,13.108Zm0-11.535a4.983,4.983,0,1,0,1.394.2A5.006,5.006,0,0,0,6.551,1.573Z" transform="translate(36.446 16.813)" fill="#c3e5fe"/>
          <path id="Shape-12" data-name="Shape" d="M6.558,13.108A6.553,6.553,0,0,1,.264,4.722,6.491,6.491,0,0,1,2.656,1.288,6.535,6.535,0,0,1,8.387.263a6.552,6.552,0,0,1,4.458,8.124,6.489,6.489,0,0,1-2.391,3.434A6.6,6.6,0,0,1,6.558,13.108Zm0-11.535a4.982,4.982,0,1,0,1.393.2A5,5,0,0,0,6.554,1.573Z" transform="translate(24.388 21.204)" fill="#c3e5fe"/>
        </g>
      </g>
    </g>
    <g id="bubble_chat" data-name="bubble chat" transform="translate(1035.938 701.23)">
      <path id="Union_1" data-name="Union 1" d="M50.865,46.078A24.486,24.486,0,0,1,30.248,33.395H9.929A34.91,34.91,0,0,1-24.863-1.633,34.911,34.911,0,0,1,9.929-36.662H37.762A34.91,34.91,0,0,1,72.553-1.633,35,35,0,0,1,46.842,32.19a29.076,29.076,0,0,0,5.4,10.085c1.076,1.269.337,3.8-1.289,3.8Z" transform="translate(22 18)" fill="#fff"/>
    </g>
    <g id="ornamen4" transform="translate(1314.575 696.232)">
      <g transform="matrix(1, 0, 0, 1, -839.57, -153.54)" filter="url(#Path)">
        <path id="Path-117" data-name="Path" d="M0,12.9A12.9,12.9,0,0,1,12.9,0H68.8A12.9,12.9,0,0,1,81.7,12.9V83.416a12.9,12.9,0,0,1-12.9,12.9H12.9A12.9,12.9,0,0,1,0,83.416Z" transform="translate(839.57 153.54)" fill="#f0f1f7"/>
      </g>
      <path id="Path-118" data-name="Path" d="M0,4.3A4.3,4.3,0,0,1,4.3,0H52.457a4.3,4.3,0,0,1,0,8.6H4.3A4.3,4.3,0,0,1,0,4.3Z" transform="translate(12.901 33.538)" fill="#afcce4"/>
      <path id="Path-119" data-name="Path" d="M0,4.3A4.3,4.3,0,0,1,4.3,0H33.538a4.3,4.3,0,1,1,0,8.6H4.3A4.3,4.3,0,0,1,0,4.3Z" transform="translate(12.901 54.177)" fill="#afcce4"/>
    </g>
    <g id="ornamen3" transform="translate(1163.304 576.215)">
      <g transform="matrix(1, 0, 0, 1, -688.3, -33.52)" filter="url(#Path-2)">
        <path id="Path-120" data-name="Path" d="M0,12.9A12.9,12.9,0,0,1,12.9,0h94.6a12.9,12.9,0,0,1,12.9,12.9V95.455a12.9,12.9,0,0,1-12.9,12.9H12.9A12.9,12.9,0,0,1,0,95.455Z" transform="translate(688.3 33.52)" fill="#fff"/>
      </g>
      <path id="Path-121" data-name="Path" d="M0,4.3A4.3,4.3,0,0,1,4.3,0H34.828a4.3,4.3,0,0,1,0,8.6H4.3A4.3,4.3,0,0,1,0,4.3Z" transform="translate(42.139 87.715)" fill="#afcce4"/>
      <path id="Path-122" data-name="Path" d="M0,6.153a6.152,6.152,0,1,1,12.3,0V34.862a6.152,6.152,0,0,1-12.3,0Z" transform="translate(27.519 36.845)" fill="#ffa780"/>
      <path id="Path-123" data-name="Path" d="M0,6.151a6.152,6.152,0,0,1,12.3,0V55.368a6.152,6.152,0,1,1-12.3,0Z" transform="translate(44.95 16.339)" fill="#0026bc"/>
      <path id="Path-124" data-name="Path" d="M0,6.153a6.152,6.152,0,1,1,12.3,0v17.43a6.152,6.152,0,0,1-12.3,0Z" transform="translate(62.38 48.124)" fill="#ffa780"/>
      <path id="Path-125" data-name="Path" d="M0,6.151a6.152,6.152,0,0,1,12.3,0V44.089a6.152,6.152,0,1,1-12.3,0Z" transform="translate(79.812 27.618)" fill="#0026bc"/>
    </g>
    <g id="ornamen2" transform="translate(1214.422 765.206)">
      <g transform="matrix(1, 0, 0, 1, -739.42, -222.51)" filter="url(#Path-3)">
        <path id="Path-126" data-name="Path" d="M0,12.9A12.9,12.9,0,0,1,12.9,0h43A12.9,12.9,0,0,1,68.8,12.9v43A12.9,12.9,0,0,1,55.9,68.8h-43A12.9,12.9,0,0,1,0,55.9Z" transform="translate(739.42 222.51)" fill="#fff"/>
      </g>
      <path id="Shape-13" data-name="Shape" d="M20.424,40.848A20.424,20.424,0,0,1,5.982,5.982,20.424,20.424,0,0,1,34.866,34.866,20.291,20.291,0,0,1,20.424,40.848Zm0-27.948a7.524,7.524,0,1,0,7.524,7.524A7.533,7.533,0,0,0,20.424,12.9Z" transform="translate(14.188 14.189)" fill="#0f3e9f"/>
      <path id="Path-127" data-name="Path" d="M20.5,12.9a7.525,7.525,0,1,0,6.137,11.972A6.45,6.45,0,1,1,37,32.564,20.473,20.473,0,1,1,20.5,0a6.45,6.45,0,0,1,0,12.9Z" transform="translate(14.188 14.189)" fill="#ffa780"/>
    </g>
    <g id="ornamen1" transform="translate(685.373 569.694)">
      <g transform="matrix(1, 0, 0, 1, -210.37, -27)" filter="url(#Path-4)">
        <path id="Path-128" data-name="Path" d="M0,12.9A12.9,12.9,0,0,1,12.9,0H68.8A12.9,12.9,0,0,1,81.7,12.9V83.416a12.9,12.9,0,0,1-12.9,12.9H12.9A12.9,12.9,0,0,1,0,83.416Z" transform="translate(210.37 27)" fill="#f0f1f7"/>
      </g>
      <path id="Path-129" data-name="Path" d="M54.176,27.357A27.089,27.089,0,1,1,27.359,0l-.27,27.087Z" transform="translate(15.984 17.706)" fill="#0026bc"/>
      <path id="Path-130" data-name="Path" d="M.188,0A18.915,18.915,0,0,1,13.509,5.674a18.915,18.915,0,0,1,5.408,13.433L0,18.918Z" transform="translate(48.71 21.202)" fill="#ffa780"/>
    </g>
    <g id="Groupe_1615" data-name="Groupe 1615" transform="translate(-6.004 -0.432)">
      <g id="Layer_2" data-name="Layer 2" transform="matrix(0.966, -0.259, 0.259, 0.966, 1063.234, 691.118)">
        <g id="phone-call" transform="translate(0 0)">
          <rect id="Rectangle_1000" data-name="Rectangle 1000" width="29" height="28" transform="translate(-0.488 0.432)" fill="#0026bc" opacity="0"/>
          <path id="Tracé_250" data-name="Tracé 250" d="M13.186,8.372a3.559,3.559,0,0,1,3.559,3.559,1.186,1.186,0,0,0,2.372,0A5.931,5.931,0,0,0,13.186,6a1.186,1.186,0,1,0,0,2.372Z" transform="translate(2.018 0.934)" fill="#0026bc"/>
          <path id="Tracé_251" data-name="Tracé 251" d="M13.186,4.372a8.3,8.3,0,0,1,8.3,8.3,1.186,1.186,0,1,0,2.372,0A10.676,10.676,0,0,0,13.186,2a1.186,1.186,0,0,0,0,2.372Z" transform="translate(2.018 0.189)" fill="#0026bc"/>
          <path id="Tracé_252" data-name="Tracé 252" d="M25.428,18.5a1.186,1.186,0,0,0-.854-.771L17.457,16.1a1.186,1.186,0,0,0-1.091.308c-.166.154-.178.166-.949,1.637a11.756,11.756,0,0,1-5.777-5.8c1.507-.759,1.518-.759,1.673-.937a1.186,1.186,0,0,0,.308-1.091L10,3.186a1.186,1.186,0,0,0-.771-.854,4.5,4.5,0,0,0-.854-.214A4.674,4.674,0,0,0,7.457,2,5.457,5.457,0,0,0,2,7.457,18.292,18.292,0,0,0,20.268,25.725a5.457,5.457,0,0,0,5.457-5.457,5.659,5.659,0,0,0-.071-.9A5.148,5.148,0,0,0,25.428,18.5Z" transform="translate(-1.374 2.485)" fill="#0026bc"/>
        </g>
      </g>
      <g id="Layer_2-2" data-name="Layer 2" transform="translate(1080.539 699.967)">
        <g id="trending-up" transform="translate(-4 -1.273)">
          <rect id="Rectangle_1001" data-name="Rectangle 1001" width="51" height="51" transform="translate(0.465 51.738) rotate(-90)" fill="#ffa780" opacity="0"/>
          <path id="Tracé_253" data-name="Tracé 253" d="M41.561,8.142a1.671,1.671,0,0,0,0-.45,1.371,1.371,0,0,0-.107-.364,2.356,2.356,0,0,0-.193-.3,1.606,1.606,0,0,0-.3-.364l-.257-.15A1.478,1.478,0,0,0,40.3,6.3h-.428a1.5,1.5,0,0,0-.45-.3H28.708a2.142,2.142,0,1,0,0,4.284H34.77L26.2,20.374l-9.254-5.505a2.142,2.142,0,0,0-2.742.471L3.495,28.193a2.145,2.145,0,0,0,3.3,2.742L16.326,19.5l9.147,5.484a2.142,2.142,0,0,0,2.721-.45l9.083-10.6v4.927a2.142,2.142,0,1,0,4.284,0Z" transform="translate(2.981 6.8)" fill="#ffa780"/>
        </g>
      </g>
      <g id="Icon_feather-dollar-sign" data-name="Icon feather-dollar-sign" transform="translate(1059.9 719.619)">
        <path id="Tracé_254" data-name="Tracé 254" d="M18,1.5V28.313" transform="translate(-10.687 -1.5)" fill="none" stroke="#00c8bc" stroke-linecap="round" stroke-linejoin="round" stroke-width="3"/>
        <path id="Tracé_255" data-name="Tracé 255" d="M22.407,7.5H13.266a4.266,4.266,0,0,0,0,8.531H19.36a4.266,4.266,0,0,1,0,8.531H9" transform="translate(-9 -2.625)" fill="none" stroke="#00c8bc" stroke-linecap="round" stroke-linejoin="round" stroke-width="3"/>
      </g>
    </g>
    <g id="Groupe_1622" data-name="Groupe 1622" transform="translate(56 -44)">
      <g id="Groupe_1621" data-name="Groupe 1621" transform="translate(764 -2707.128)">
        <rect id="Rectangle_1002" data-name="Rectangle 1002" width="136" height="168" rx="13" transform="translate(-345 3364.128)" fill="#fff"/>
        <g id="Groupe_1617" data-name="Groupe 1617" transform="translate(-312.61 3380.612)">
          <ellipse id="Oval-21" data-name="Oval" cx="35.375" cy="35.375" rx="35.375" ry="35.375" fill="#0026bc"/>
          <ellipse id="Oval-22" data-name="Oval" cx="8.186" cy="8.186" rx="8.186" ry="8.186" transform="translate(26.661 16.724)" fill="#f0f1f7"/>
          <path id="Path-131" data-name="Path" d="M6.762,0A15.542,15.542,0,0,0,0,12.832c0,8.589,6.964,9,15.553,9s15.553-.414,15.553-9A15.54,15.54,0,0,0,24.346,0a10.629,10.629,0,0,1-8.793,4.647A10.628,10.628,0,0,1,6.762,0Z" transform="translate(19.296 32.192)" fill="#f0f1f7"/>
          <path id="Path-132" data-name="Path" d="M0,4.9A4.9,4.9,0,0,1,4.9,0H42.137a4.9,4.9,0,0,1,0,9.8H4.9A4.9,4.9,0,0,1,0,4.9Z" transform="translate(11.6 82.334)" fill="#d5e6f2"/>
        </g>
        <g id="Groupe_1619" data-name="Groupe 1619" transform="translate(-290.929 3489.165)">
          <rect id="Rectangle_994" data-name="Rectangle 994" width="30" height="30" rx="12" transform="translate(-0.071 -0.037)" fill="#ff7c41"/>
          <g id="Layer_2-3" data-name="Layer 2" transform="translate(25.564 16.36) rotate(135)">
            <g id="phone">
              <rect id="Rectangle_995" data-name="Rectangle 995" width="15.877" height="15.877" fill="#f0f1f7" opacity="0"/>
              <path id="Tracé_245" data-name="Tracé 245" d="M10.188,13.231A10.2,10.2,0,0,1,0,3.043,3.043,3.043,0,0,1,3.043,0a2.606,2.606,0,0,1,.509.046,2.507,2.507,0,0,1,.476.119.662.662,0,0,1,.43.5l.906,3.969a.662.662,0,0,1-.172.609c-.086.093-.093.1-.906.523A6.556,6.556,0,0,0,7.509,9c.43-.82.437-.827.529-.913a.662.662,0,0,1,.609-.172l3.969.906a.662.662,0,0,1,.476.43,2.871,2.871,0,0,1,.126.483,3.155,3.155,0,0,1,.04.5A3.043,3.043,0,0,1,10.188,13.231Z" transform="translate(1.323 1.323)" fill="#f0f1f7"/>
            </g>
          </g>
        </g>
      </g>
      <g id="Groupe_1623" data-name="Groupe 1623" transform="translate(246 4.48)">
        <g transform="matrix(1, 0, 0, 1, 173, 582.21)" filter="url(#Rectangle_1003)">
          <rect id="Rectangle_1003-4" data-name="Rectangle 1003" width="66" height="66" rx="16" transform="translate(149 209.31)" fill="#fff"/>
        </g>
        <g id="smiling-emoticon-square-face-svgrepo-com" transform="translate(334.362 806.558)">
          <path id="Tracé_256" data-name="Tracé 256" d="M2.9,5.336a5.215,5.215,0,1,1,5.215,5.217A5.217,5.217,0,0,1,2.9,5.336Zm23.648,0a5.216,5.216,0,1,1,5.217,5.217A5.219,5.219,0,0,1,26.546,5.336ZM38.877,26.7A20.823,20.823,0,0,1,19.592,39C10.928,39,3.314,34.148.193,26.636A2.523,2.523,0,1,1,4.854,24.7c2.336,5.623,8.121,9.255,14.738,9.255a15.783,15.783,0,0,0,14.652-9.262,2.524,2.524,0,0,1,4.633,2Z" transform="translate(0.001 -0.121)" fill="#0026bc"/>
        </g>
      </g>
      <g id="Groupe_1626" data-name="Groupe 1626" transform="translate(198.81 49)">
        <g id="Groupe_1625" data-name="Groupe 1625" transform="translate(2 -1)">
          <g transform="matrix(1, 0, 0, 1, 218.19, 538.69)" filter="url(#Rectangle_1003-2)">
            <rect id="Rectangle_1003-5" data-name="Rectangle 1003" width="38" height="38" rx="8" transform="translate(98 247.31)" fill="#fff"/>
          </g>
        </g>
        <g id="sleeping-face-with-opened-mouth-in-square-outline-svgrepo-com" transform="translate(326.19 792.472)">
          <path id="Tracé_257" data-name="Tracé 257" d="M0,2.786A1.269,1.269,0,0,1,1.269,1.517H6.661a1.269,1.269,0,1,1,0,2.538H1.269A1.269,1.269,0,0,1,0,2.786Zm14.267,0a1.269,1.269,0,0,1,1.269-1.269h5.392a1.269,1.269,0,0,1,0,2.538H15.536A1.27,1.27,0,0,1,14.267,2.786ZM11.1,9.291a6.6,6.6,0,1,1-6.6,6.6A6.606,6.606,0,0,1,11.1,9.291Z" transform="translate(0 0)" fill="#8c96cf"/>
        </g>
      </g>
      <g id="Groupe_1627" data-name="Groupe 1627" transform="translate(28 10)">
        <g id="Groupe_1624" data-name="Groupe 1624" transform="translate(211.81 73)">
          <g id="Groupe_1625-2" data-name="Groupe 1625" transform="translate(2 -1)">
            <g transform="matrix(1, 0, 0, 1, 177.19, 504.69)" filter="url(#Rectangle_1003-3)">
              <rect id="Rectangle_1003-6" data-name="Rectangle 1003" width="32" height="32" rx="8" transform="translate(145 287.31)" fill="#fff"/>
            </g>
          </g>
        </g>
        <g id="disappointed-emoticon-face-svgrepo-com" transform="translate(544 869.518)">
          <path id="Tracé_258" data-name="Tracé 258" d="M16.39,17.105a.457.457,0,0,1-.422.633h0L.457,17.719a.457.457,0,0,1-.419-.638,8.8,8.8,0,0,1,8.152-5.2A8.74,8.74,0,0,1,16.39,17.105ZM1.9,5.6A1.977,1.977,0,1,1,3.879,7.581,1.978,1.978,0,0,1,1.9,5.6Zm8.967,0a1.978,1.978,0,1,1,1.978,1.978A1.979,1.979,0,0,1,10.869,5.6Z" transform="translate(0)" fill="#c8cff8"/>
        </g>
      </g>
    </g>
  </g>
</svg>
