<svg xmlns="http://www.w3.org/2000/svg" xmlns:xlink="http://www.w3.org/1999/xlink" width="639.902" height="524.641" viewBox="0 0 639.902 524.641">
  <defs>
    <filter id="Path" x="0" y="212.139" width="309.971" height="176.956" filterUnits="userSpaceOnUse">
      <feOffset dy="6" input="SourceAlpha"/>
      <feGaussianBlur stdDeviation="4" result="blur"/>
      <feFlood flood-color="#4afff9" flood-opacity="0.451"/>
      <feComposite operator="in" in2="blur"/>
      <feComposite in="SourceGraphic"/>
    </filter>
    <filter id="Path-2" x="51.77" y="180.078" width="277.481" height="159.131" filterUnits="userSpaceOnUse">
      <feOffset dy="4" input="SourceAlpha"/>
      <feGaussianBlur stdDeviation="4" result="blur-2"/>
      <feFlood flood-color="#f981a6" flood-opacity="0.569"/>
      <feComposite operator="in" in2="blur-2"/>
      <feComposite in="SourceGraphic"/>
    </filter>
    <filter id="Path-3" x="29.628" y="302.94" width="340.839" height="221.2" filterUnits="userSpaceOnUse">
      <feOffset dy="-14" input="SourceAlpha"/>
      <feGaussianBlur stdDeviation="22" result="blur-3"/>
      <feFlood flood-opacity="0.071"/>
      <feComposite operator="in" in2="blur-3"/>
      <feComposite in="SourceGraphic"/>
    </filter>
    <filter id="Intersection_3" x="135.367" y="322.997" width="235.684" height="201.644" filterUnits="userSpaceOnUse">
      <feOffset dy="-14" input="SourceAlpha"/>
      <feGaussianBlur stdDeviation="22" result="blur-4"/>
      <feFlood flood-opacity="0.071"/>
      <feComposite operator="in" in2="blur-4"/>
      <feComposite in="SourceGraphic"/>
    </filter>
  </defs>
  <g id="Groupe_1613" data-name="Groupe 1613" transform="translate(-199.621 -3295)">
    <g id="Groupe_1608" data-name="Groupe 1608" transform="translate(-106.99 -381)">
      <g id="Groupe_1603" data-name="Groupe 1603" transform="translate(536.124 3676)">
        <rect id="Rectangle_992" data-name="Rectangle 992" width="275.974" height="430.776" rx="24" transform="translate(0)" fill="#fff"/>
        <g id="Groupe_1602" data-name="Groupe 1602" transform="translate(88.094 36.243)">
          <ellipse id="Oval" cx="49.396" cy="49.396" rx="49.396" ry="49.396" fill="#0026bc"/>
          <ellipse id="Oval-2" data-name="Oval" cx="11.43" cy="11.43" rx="11.43" ry="11.43" transform="translate(37.229 23.353)" fill="#f0f1f7"/>
          <path id="Path-4" data-name="Path" d="M9.442,0A21.7,21.7,0,0,0,0,17.919C0,29.912,9.724,30.491,21.718,30.491s21.718-.578,21.718-12.572A21.7,21.7,0,0,0,34,0,14.842,14.842,0,0,1,21.718,6.489,14.841,14.841,0,0,1,9.442,0Z" transform="translate(26.944 44.951)" fill="#f0f1f7"/>
          <path id="Path-5" data-name="Path" d="M0,6.841A6.842,6.842,0,0,1,6.841,0h52a6.841,6.841,0,0,1,0,13.682h-52A6.842,6.842,0,0,1,0,6.841Z" transform="translate(16.198 114.967)" fill="#eef8ff"/>
        </g>
      </g>
      <g id="Groupe_1606" data-name="Groupe 1606" transform="translate(337.99 3866.578)">
        <g id="Group" transform="translate(-16 0)">
          <g transform="matrix(1, 0, 0, 1, -15.38, -190.58)" filter="url(#Path)">
            <path id="Path-6" data-name="Path" d="M0,147.077,32.737,85.21C38.3,74.7,52.2,74.7,57.765,85.21h0c5.566,10.509,19.463,10.509,25.029,0L103.336,46.4c5.566-10.509,19.463-10.509,25.029,0l8.111,15.343c5.566,10.509,19.463,10.509,25.029,0l5.072-9.594C183.658,19.884,215.205,0,249.37,0h30.723" transform="translate(15.38 220.64)" fill="none" stroke="#11e6df" stroke-linecap="round" stroke-miterlimit="10" stroke-width="5"/>
          </g>
          <g transform="matrix(1, 0, 0, 1, -15.38, -190.58)" filter="url(#Path-2)">
            <path id="Path-7" data-name="Path" d="M247.557,129.207h0c-10.29-17.412-27.995-27.921-46.981-27.921H146.985c-28.159,0-54.067-16.844-67.451-43.869L67.762,33.652C57.491,12.926,37.607,0,16,0H0" transform="translate(66.27 190.58)" fill="none" stroke="#f981a6" stroke-linecap="round" stroke-linejoin="round" stroke-miterlimit="10" stroke-width="5"/>
          </g>
        </g>
        <text id="Enthusiastic" transform="translate(291.141 50.91)" fill="#11e6df" font-size="13" font-family="Helvetica"><tspan x="0" y="0">ENTHUSIASTIC</tspan></text>
        <text id="NERVOUS" transform="translate(306.525 136.119)" fill="#f981a6" font-size="13" font-family="Helvetica"><tspan x="0" y="0">NERVOUS</tspan></text>
        <text id="_62" data-name="+ %62" transform="translate(291.141 34.774)" fill="#11e6df" font-size="30" font-family="Helvetica"><tspan x="0" y="0">+ </tspan><tspan y="0" font-size="17.499" baseline-shift="9.999000313881634">%</tspan><tspan y="0">62</tspan></text>
        <text id="_-_11" data-name="- %11" transform="translate(306.525 121.166)" fill="#f981a6" font-size="30" font-family="Helvetica"><tspan x="0" y="0">- </tspan><tspan y="0" font-size="17.499" baseline-shift="9.999000313881634">%</tspan><tspan y="0">11</tspan></text>
      </g>
      <g id="Groupe_1604" data-name="Groupe 1604" transform="translate(725.476 3680.712)">
        <g id="Groupe_1605" data-name="Groupe 1605" transform="translate(0 0)">
          <g id="Groupe_1604-2" data-name="Groupe 1604" transform="translate(0 0)">
            <rect id="Rectangle_993" data-name="Rectangle 993" width="117.021" height="29.608" rx="3" fill="#00c8bc"/>
          </g>
          <text id="CONNECTED" transform="translate(20.469 16.823)" fill="#fff" font-size="11" font-family="Helvetica"><tspan x="0" y="0">CONNECTED</tspan></text>
        </g>
      </g>
      <g id="Groupe_1609" data-name="Groupe 1609" transform="translate(598.45 4044.053)">
        <rect id="Rectangle_994" data-name="Rectangle 994" width="45" height="45" rx="12" transform="translate(106.54 -0.053)" fill="#ff7c41"/>
        <rect id="Rectangle_996" data-name="Rectangle 996" width="45" height="45" rx="12" transform="translate(52.54 -0.053)" fill="#f0f1f7"/>
        <rect id="Rectangle_997" data-name="Rectangle 997" width="45" height="45" rx="12" transform="translate(-0.46 -0.053)" fill="#f0f1f7"/>
        <g id="Layer_2" data-name="Layer 2" transform="translate(145.949 25.054) rotate(135)">
          <g id="phone">
            <rect id="Rectangle_995" data-name="Rectangle 995" width="24.117" height="24.117" fill="#f0f1f7" opacity="0"/>
            <path id="Tracé_245" data-name="Tracé 245" d="M15.475,20.1A15.5,15.5,0,0,1,0,4.622,4.622,4.622,0,0,1,4.622,0,3.959,3.959,0,0,1,5.4.07,3.808,3.808,0,0,1,6.12.251,1,1,0,0,1,6.773,1L8.149,7.034a1,1,0,0,1-.261.924c-.131.141-.141.151-1.377.794a9.958,9.958,0,0,0,4.894,4.914c.653-1.246.663-1.256.8-1.387a1,1,0,0,1,.924-.261l6.029,1.377a1,1,0,0,1,.724.653,4.361,4.361,0,0,1,.191.734,4.793,4.793,0,0,1,.06.764A4.622,4.622,0,0,1,15.475,20.1Z" transform="translate(2.01 2.01)" fill="#f0f1f7"/>
          </g>
        </g>
      </g>
    </g>
    <g id="Group-2" data-name="Group" transform="translate(631 3415.5)">
      <path id="Path-8" data-name="Path" d="M12.394,0S2.194,4.04.064,14.03c-1.43,6.71,21.47,33.8,21.47,33.8Z" transform="translate(59.406 39.82)" fill="#94c8ff"/>
      <path id="Path-9" data-name="Path" d="M8.67,0s10.68,4.31,12.8,14.3C22.9,21.01,0,48.1,0,48.1Z" transform="translate(133.43 39.55)" fill="#94c8ff"/>
      <path id="Path-10" data-name="Path" d="M0,38.521v22.86a43.625,43.625,0,0,0,2.86,15.15c.08.21.15.41.24.62,4.26,10.62,13.8,21.35,33.7,22.12.38.03.76.03,1.16.03a11.474,11.474,0,0,0,1.18-.03c19.92-.77,29.46-11.51,33.72-22.14a43.805,43.805,0,0,0,3.09-15.74V38.511c0-16.08-9.78-30.84-24.93-36.25a38.785,38.785,0,0,0-25.7-.14A37.252,37.252,0,0,0,4.8,19.641,39.488,39.488,0,0,0,0,38.521Z" transform="translate(66.41 0.349)" fill="#94c8ff"/>
      <path id="Path-11" data-name="Path" d="M0,19.41V42.27A43.625,43.625,0,0,0,2.86,57.42a17.051,17.051,0,0,0,6.21,1.16H40.59A17.169,17.169,0,0,0,57.75,41.42V17.16A17.163,17.163,0,0,0,40.59,0H9.07A17.71,17.71,0,0,0,4.8.53,39.488,39.488,0,0,0,0,19.41Z" transform="translate(66.41 19.46)" fill="#fff"/>
      <path id="Path-12" data-name="Path" d="M20.12,0A15.927,15.927,0,0,1,9.35,3.68,15.8,15.8,0,0,1,0,0" transform="translate(80.59 63.13)" fill="none" stroke="#0026bc" stroke-linecap="round" stroke-linejoin="round" stroke-miterlimit="10" stroke-width="3"/>
      <path id="Path-13" data-name="Path" d="M23.351,147.54a34.941,34.941,0,0,0,13.92,15.49,36.4,36.4,0,0,0,16.79,5.06v-.27l.04.27s20.96,0,30.7-20.55c5.4-11.37,25.68-95.1,23.14-116.36S81.581,0,54.071,0a106.024,106.024,0,0,0-12.49.72C19.691,3.36,2.371,13.24.221,31.18-2.329,52.44,17.951,136.16,23.351,147.54Z" transform="translate(50.329 104.24)" fill="#94c8ff"/>
      <path id="Path-14" data-name="Path" d="M23.378,10.84S21.038,0,17.638,0s-5.31,11.91-5.31,11.91S-5.1,21.69,1.488,35.93s31.68,11.69,34.44-6.59c5.31-15.09,4.04-21.68,1.49-21.68s-6.59,7.23-6.59,7.23Z" transform="translate(168.902 99.35)" fill="#94c8ff"/>
      <path id="Path-15" data-name="Path" d="M12.428,6.342S3.568-1.488.7.252s4.04,14.28,4.04,14.28" transform="translate(186.762 122.478)" fill="none" stroke="#0026bc" stroke-linecap="round" stroke-linejoin="round" stroke-miterlimit="10" stroke-width="3"/>
      <path id="Path-16" data-name="Path" d="M16.243,10.84S18.583,0,21.983,0s5.31,11.91,5.31,11.91,17.43,9.78,10.84,24.02S6.453,47.62,3.693,29.34C-1.617,14.25-.347,7.66,2.2,7.66s6.59,7.23,6.59,7.23Z" transform="translate(0.367 99.35)" fill="#94c8ff"/>
      <path id="Path-17" data-name="Path" d="M0,6.342S8.86-1.488,11.73.252s-4.04,14.28-4.04,14.28" transform="translate(9.7 122.478)" fill="none" stroke="#0026bc" stroke-linecap="round" stroke-linejoin="round" stroke-miterlimit="10" stroke-width="3"/>
      <circle id="Oval-3" data-name="Oval" cx="7.65" cy="7.65" r="7.65" transform="translate(98.35 39.75)" stroke-width="3" stroke="#0026bc" stroke-linecap="round" stroke-linejoin="round" stroke-miterlimit="10" fill="none"/>
      <circle id="Oval-4" data-name="Oval" cx="7.65" cy="7.65" r="7.65" transform="translate(67.06 39.75)" stroke-width="3" stroke="#0026bc" stroke-linecap="round" stroke-linejoin="round" stroke-miterlimit="10" fill="none"/>
      <g id="Group-3" data-name="Group" transform="translate(62 122)">
        <path id="Path-18" data-name="Path" d="M5.67,26.75H37.66a5.672,5.672,0,0,0,5.67-5.67V5.67A5.672,5.672,0,0,0,37.66,0H5.67A5.672,5.672,0,0,0,0,5.67V21.08A5.665,5.665,0,0,0,5.67,26.75Z" transform="translate(0.02 0.47)" fill="#0026bc" stroke="#0026bc" stroke-width="1"/>
        <g id="Group-4" data-name="Group" transform="translate(7 11)">
          <circle id="Oval-5" data-name="Oval" cx="2.21" cy="2.21" r="2.21" transform="translate(24.35 0.64)" fill="#fff7ee"/>
          <circle id="Oval-6" data-name="Oval" cx="2.21" cy="2.21" r="2.21" transform="translate(12.47 0.64)" fill="#fff7ee"/>
          <circle id="Oval-7" data-name="Oval" cx="2.21" cy="2.21" r="2.21" transform="translate(0.6 0.64)" fill="#fff7ee"/>
        </g>
      </g>
      <path id="Path-19" data-name="Path" d="M0,59.36H38.37A13.032,13.032,0,0,0,51.4,46.33V16.93A16.93,16.93,0,0,0,34.47,0H4.79" transform="translate(72.79 18.67)" fill="none" stroke="#0026bc" stroke-linecap="round" stroke-linejoin="round" stroke-miterlimit="10" stroke-width="3"/>
    </g>
    <g id="Groupe_1612" data-name="Groupe 1612" transform="translate(-209 -108)">
      <text id="WILLINGNESS_TO_BUY" data-name="WILLINGNESS TO BUY" transform="translate(505.275 3900.776)" fill="#f0f1f7" font-size="20" font-family="Helvetica"><tspan x="0" y="0">WILLINGNESS TO BUY</tspan></text>
      <g id="Groupe_1611" data-name="Groupe 1611" transform="translate(504.249 3785.94)">
        <g id="Groupe_1611-2" data-name="Groupe 1611" transform="translate(0 0)">
          <g id="Group-5" data-name="Group" transform="translate(0 0)">
            <g transform="matrix(1, 0, 0, 1, -95.63, -382.94)" filter="url(#Path-3)">
              <path id="Path-20" data-name="Path" d="M0,89.2a105.718,105.718,0,0,1,208.839,0Z" transform="translate(95.63 382.94)" fill="#1a237e"/>
            </g>
          </g>
          <g transform="matrix(1, 0, 0, 1, -95.63, -382.94)" filter="url(#Intersection_3)">
            <path id="Intersection_3-2" data-name="Intersection 3" d="M0,68.468,60.385,0a105.806,105.806,0,0,1,41.607,68.468Z" transform="translate(202.48 403.67)" fill="#11e6df" stroke="rgba(0,0,0,0)" stroke-miterlimit="10" stroke-width="1"/>
          </g>
        </g>
        <path id="Path-21" data-name="Path" d="M6.544,15.352l67-15.318A1.441,1.441,0,0,1,75.25,1.106a1.409,1.409,0,0,1-.8,1.608L11.9,31.206A8.414,8.414,0,0,1,4.936,15.888,9.354,9.354,0,0,1,6.544,15.352Z" transform="translate(93.686 45.539)" fill="#fff"/>
      </g>
    </g>
  </g>
</svg>
