<svg xmlns="http://www.w3.org/2000/svg" xmlns:xlink="http://www.w3.org/1999/xlink" width="1878" height="722" viewBox="0 0 1878 722">
  <defs>
    <filter id="Right" x="0" y="0" width="1878" height="722" filterUnits="userSpaceOnUse">
      <feOffset dy="3" input="SourceAlpha"/>
      <feGaussianBlur stdDeviation="3" result="blur"/>
      <feFlood flood-opacity="0.161"/>
      <feComposite operator="in" in2="blur"/>
      <feComposite in="SourceGraphic"/>
    </filter>
  </defs>
  <g id="Groupe_2128" data-name="Groupe 2128" transform="translate(-21 -2942)">
    <g transform="matrix(1, 0, 0, 1, 21, 2942)" filter="url(#Right)">
      <rect id="Right-2" data-name="Right" width="1860" height="704" rx="20" transform="translate(9 6)" fill="#0026bc"/>
    </g>
    <g id="Groupe_2127" data-name="Groupe 2127">
      <g id="Groupe_2126" data-name="Groupe 2126">
        <g id="Patterns" transform="translate(1281.168 2948.104)" opacity="0.07" style="mix-blend-mode: luminosity;isolation: isolate">
          <g id="Inn" transform="translate(0 0)">
            <g id="Shape">
              <ellipse id="Ellipse_118" data-name="Ellipse 118" cx="34.917" cy="34.921" rx="34.917" ry="34.921" transform="translate(527.975 490.275)" fill="#ffd726"/>
              <path id="Tracé_203" data-name="Tracé 203" d="M0,87.9H87.887V0A87.893,87.893,0,0,0,0,87.9Z" fill="#f45b0f"/>
              <path id="Tracé_212" data-name="Tracé 212" d="M34.916,69.838A34.919,34.919,0,1,0,0,34.921,34.919,34.919,0,0,0,34.916,69.838Z" transform="translate(18.053 105.004)" fill="#161616"/>
              <path id="Tracé_213" data-name="Tracé 213" d="M0,87.9A43.5,43.5,0,0,0,16.727,84.55a43.716,43.716,0,0,0,14.179-9.526,43.961,43.961,0,0,0,9.472-14.258,44.235,44.235,0,0,0,3.329-16.818,44.236,44.236,0,0,0-3.329-16.819,43.969,43.969,0,0,0-9.472-14.258A43.731,43.731,0,0,0,16.727,3.345,43.509,43.509,0,0,0,0,0Z" transform="translate(316.865 315.95)" fill="#161616"/>
              <path id="Tracé_214" data-name="Tracé 214" d="M0,87.9a43.478,43.478,0,0,0,16.727-3.345,43.674,43.674,0,0,0,14.179-9.528,43.928,43.928,0,0,0,9.48-14.26,44.2,44.2,0,0,0,3.321-16.815,44.2,44.2,0,0,0-3.321-16.815,43.929,43.929,0,0,0-9.48-14.26A43.678,43.678,0,0,0,16.727,3.345,43.482,43.482,0,0,0,0,0Z" transform="translate(510.21)" fill="#161616"/>
              <path id="Tracé_218" data-name="Tracé 218" d="M175.3,87.892a87.648,87.648,0,1,0-175.3,0Z" transform="translate(211.878 105.004)" fill="#f45b0f"/>
              <path id="Tracé_219" data-name="Tracé 219" d="M0,0A88.04,88.04,0,0,0,6.675,33.639a87.834,87.834,0,0,0,19,28.512A87.525,87.525,0,0,0,54.106,81.207a87.423,87.423,0,0,0,67.084,0,87.525,87.525,0,0,0,28.431-19.056,87.843,87.843,0,0,0,19-28.512A88.04,88.04,0,0,0,175.3,0Z" transform="translate(316.865)" fill="#ffd726"/>
              <path id="Tracé_220" data-name="Tracé 220" d="M0,175.313a88.1,88.1,0,0,0,33.639-6.673,88.006,88.006,0,0,0,28.512-19A87.711,87.711,0,0,0,81.2,121.2,87.443,87.443,0,0,0,87.89,87.654,87.471,87.471,0,0,0,81.2,54.106,87.632,87.632,0,0,0,62.151,25.674,88.065,88.065,0,0,0,33.639,6.667,88.178,88.178,0,0,0,0,0Z" transform="translate(510.21 105.003)" fill="#048ecb"/>
              <path id="Tracé_221" data-name="Tracé 221" d="M0,0A88.173,88.173,0,0,0,6.674,33.635a88.076,88.076,0,0,0,19,28.515A87.6,87.6,0,0,0,54.114,81.2,87.433,87.433,0,0,0,87.656,87.9,87.423,87.423,0,0,0,121.19,81.2a87.6,87.6,0,0,0,28.44-19.054,87.944,87.944,0,0,0,19-28.515A88.178,88.178,0,0,0,175.3,0Z" transform="translate(404.747 298.371)" fill="#f45b0f"/>
              <path id="Tracé_222" data-name="Tracé 222" d="M0,87.892H87.89V0A87.9,87.9,0,0,0,0,87.892Z" transform="translate(405.223 105.004)" fill="#048ecb"/>
              <path id="Tracé_223" data-name="Tracé 223" d="M0,0V87.9H87.883a87.9,87.9,0,0,0-6.691-33.639A87.882,87.882,0,0,0,62.144,25.747,87.777,87.777,0,0,0,33.632,6.691,87.875,87.875,0,0,0,0,0Z" transform="translate(106.889)" fill="#f45b0f"/>
              <path id="Tracé_224" data-name="Tracé 224" d="M87.882,0H0V87.9a87.863,87.863,0,0,0,33.631-6.691A87.85,87.85,0,0,0,62.143,62.152,87.864,87.864,0,0,0,81.2,33.636,87.887,87.887,0,0,0,87.882,0Z" transform="translate(316.865 210.474)" fill="#f45b0f"/>
              <path id="Tracé_226" data-name="Tracé 226" d="M43.949,0A43.949,43.949,0,0,0,0,43.948V87.9H87.89V43.948A43.947,43.947,0,0,0,43.949,0Z" transform="translate(510.21 385.79)" fill="#048ecb"/>
              <path id="Tracé_227" data-name="Tracé 227" d="M87.882,43.949A43.943,43.943,0,0,0,43.941,0H0V87.9H43.941A43.943,43.943,0,0,0,87.882,43.949Z" transform="translate(211.878)" fill="#e6e6e6"/>
              <path id="Tracé_228" data-name="Tracé 228" d="M87.883,43.941A43.936,43.936,0,0,0,43.942,0H0V87.892H43.942A43.943,43.943,0,0,0,87.883,43.941Z" transform="translate(106.889 105.004)" fill="#048ecb"/>
              <path id="Tracé_229" data-name="Tracé 229" d="M34.912,0a34.921,34.921,0,1,0,34.92,34.92A34.916,34.916,0,0,0,34.912,0Z" transform="translate(422.804 210.95)" fill="#ffd726"/>
            </g>
          </g>
        </g>
      </g>
    </g>
  </g>
</svg>
