<svg id="Chart-dots" xmlns="http://www.w3.org/2000/svg" width="76" height="76" viewBox="0 0 76 76">
  <rect id="Rectangle" width="76" height="76" fill="#0026bc" opacity="0"/>
  <path id="Stroke-1" d="M4,4V54.573H54.573" transform="translate(8.643 8.643)" fill="none" stroke="#0026bc" stroke-linecap="round" stroke-linejoin="round" stroke-width="7" fill-rule="evenodd"/>
  <path id="Fill-3" d="M15.322,14.161A3.161,3.161,0,1,1,12.161,11a3.16,3.16,0,0,1,3.161,3.161" transform="translate(19.447 23.769)" fill="#0026bc" fill-rule="evenodd"/>
  <path id="Fill-5" d="M16.322,9.161A3.161,3.161,0,1,1,13.161,6a3.16,3.16,0,0,1,3.161,3.161" transform="translate(21.608 12.965)" fill="#0026bc" fill-rule="evenodd"/>
  <path id="Fill-7" d="M19.322,11.161A3.161,3.161,0,1,1,16.161,8a3.16,3.16,0,0,1,3.161,3.161" transform="translate(28.091 17.287)" fill="#0026bc" fill-rule="evenodd"/>
  <path id="Fill-9" d="M23.322,12.161A3.161,3.161,0,1,1,20.161,9a3.16,3.16,0,0,1,3.161,3.161" transform="translate(36.734 19.447)" fill="#0026bc" fill-rule="evenodd"/>
  <path id="Fill-11" d="M25.322,9.161A3.161,3.161,0,1,1,22.161,6a3.16,3.16,0,0,1,3.161,3.161" transform="translate(41.056 12.965)" fill="#0026bc" fill-rule="evenodd"/>
  <path id="Fill-13" d="M13.322,17.161A3.161,3.161,0,1,1,10.161,14a3.16,3.16,0,0,1,3.161,3.161" transform="translate(15.126 30.252)" fill="#0026bc" fill-rule="evenodd"/>
</svg>
