<svg xmlns="http://www.w3.org/2000/svg" width="1306" height="406.365" viewBox="0 0 1306 406.365">
  <g id="Groupe_2129" data-name="Groupe 2129" transform="translate(-307 -7745.635)">
    <rect id="Right" width="1306" height="406" rx="20" transform="translate(307 7746)" fill="#0026bc"/>
    <g id="Patterns" transform="translate(418.129 7312.323)" opacity="0.1" style="mix-blend-mode: luminosity;isolation: isolate">
      <g id="Inn" transform="translate(815.039 486.312)">
        <g id="Shape" transform="translate(0 0)">
          <ellipse id="Ellipse_118" data-name="Ellipse 118" cx="22.028" cy="22.031" rx="22.028" ry="22.031" transform="translate(333.088)" fill="#ffd726"/>
          <path id="Tracé_203" data-name="Tracé 203" d="M848.039,1090.96h55.446v55.453a55.449,55.449,0,0,1-55.446-55.453Z" transform="translate(-848.039 -793.048)" fill="#f45b0f"/>
          <path id="Tracé_212" data-name="Tracé 212" d="M892.462,983.1a22.03,22.03,0,1,1-22.028,22.029A22.029,22.029,0,0,1,892.462,983.1Z" transform="translate(-859.045 -740.043)" fill="#161616"/>
          <path id="Tracé_213" data-name="Tracé 213" d="M1241.12,699.018a27.5,27.5,0,0,1,19.5,8.121,27.767,27.767,0,0,1-8.945,45.22,27.448,27.448,0,0,1-10.552,2.11Z" transform="translate(-1041.217 -600.43)" fill="#161616"/>
          <path id="Tracé_214" data-name="Tracé 214" d="M1480.97,1090.96a27.494,27.494,0,0,1,19.5,8.122,27.769,27.769,0,0,1-8.946,45.221,27.429,27.429,0,0,1-10.552,2.111Z" transform="translate(-1159.09 -793.048)" fill="#161616"/>
          <path id="Tracé_218" data-name="Tracé 218" d="M1221.47,960.707a55.3,55.3,0,1,1-110.59,0Z" transform="translate(-977.211 -729.036)" fill="#f45b0f"/>
          <path id="Tracé_219" data-name="Tracé 219" d="M1241.12,1146.413a55.3,55.3,0,1,1,110.59,0Z" transform="translate(-1041.217 -793.048)" fill="#ffd726"/>
          <path id="Tracé_220" data-name="Tracé 220" d="M1480.97,852.259a55.3,55.3,0,1,1,0,110.6Z" transform="translate(-1159.09 -675.74)" fill="#048ecb"/>
          <path id="Tracé_221" data-name="Tracé 221" d="M1350.14,776.276a55.3,55.3,0,1,1,110.6,0Z" transform="translate(-1094.794 -611.147)" fill="#f45b0f"/>
          <path id="Tracé_222" data-name="Tracé 222" d="M1350.73,960.707h55.448v55.449a55.451,55.451,0,0,1-55.448-55.449Z" transform="translate(-1095.084 -729.036)" fill="#048ecb"/>
          <path id="Tracé_223" data-name="Tracé 223" d="M980.638,1146.413V1090.96h55.444a55.445,55.445,0,0,1-55.444,55.453Z" transform="translate(-913.204 -793.048)" fill="#f45b0f"/>
          <path id="Tracé_224" data-name="Tracé 224" d="M1296.563,885.314H1241.12V829.862a55.437,55.437,0,0,1,55.443,55.452Z" transform="translate(-1041.217 -664.733)" fill="#f45b0f"/>
          <path id="Tracé_226" data-name="Tracé 226" d="M1508.7,667.829A27.726,27.726,0,0,1,1480.97,640.1V612.377h55.448V640.1A27.725,27.725,0,0,1,1508.7,667.829Z" transform="translate(-1159.09 -557.851)" fill="#048ecb"/>
          <path id="Tracé_227" data-name="Tracé 227" d="M1166.323,1118.686a27.723,27.723,0,0,1-27.721,27.727H1110.88V1090.96H1138.6A27.722,27.722,0,0,1,1166.323,1118.686Z" transform="translate(-977.211 -793.048)" fill="#e6e6e6"/>
          <path id="Tracé_228" data-name="Tracé 228" d="M1036.082,988.435a27.718,27.718,0,0,1-27.721,27.721H980.638V960.707h27.722A27.722,27.722,0,0,1,1036.082,988.435Z" transform="translate(-913.204 -729.036)" fill="#048ecb"/>
          <path id="Tracé_229" data-name="Tracé 229" d="M1394.565,895.731A22.031,22.031,0,1,1,1416.6,873.7,22.028,22.028,0,0,1,1394.565,895.731Z" transform="translate(-1105.802 -675.45)" fill="#ffd726"/>
        </g>
      </g>
    </g>
    <g id="Patterns-2" data-name="Patterns" transform="translate(309.168 7745.635)" opacity="0.1" style="mix-blend-mode: luminosity;isolation: isolate">
      <g id="Inn-2" data-name="Inn" transform="translate(0 0)">
        <g id="Shape-2" data-name="Shape">
          <ellipse id="Ellipse_118-2" data-name="Ellipse 118" cx="22.028" cy="22.031" rx="22.028" ry="22.031" transform="translate(0.184 309.303)" fill="#ffd726"/>
          <path id="Tracé_203-2" data-name="Tracé 203" d="M903.485,1146.413H848.039V1090.96a55.449,55.449,0,0,1,55.446,55.453Z" transform="translate(-526.157 -1090.96)" fill="#f45b0f"/>
          <path id="Tracé_212-2" data-name="Tracé 212" d="M892.463,1027.163a22.029,22.029,0,1,1,22.028-22.029A22.029,22.029,0,0,1,892.463,1027.163Z" transform="translate(-548.552 -916.859)" fill="#161616"/>
          <path id="Tracé_213-2" data-name="Tracé 213" d="M1268.694,754.469a27.5,27.5,0,0,1-19.5-8.121,27.767,27.767,0,0,1,8.945-45.22,27.448,27.448,0,0,1,10.552-2.11Z" transform="translate(-1091.269 -499.692)" fill="#161616"/>
          <path id="Tracé_214-2" data-name="Tracé 214" d="M1508.544,1146.413a27.494,27.494,0,0,1-19.5-8.122,27.769,27.769,0,0,1,8.946-45.221,27.429,27.429,0,0,1,10.552-2.111Z" transform="translate(-1453.096 -1090.96)" fill="#161616"/>
          <path id="Tracé_218-2" data-name="Tracé 218" d="M1110.88,1016.156a55.3,55.3,0,1,1,110.59,0Z" transform="translate(-977.811 -894.463)" fill="#f45b0f"/>
          <path id="Tracé_219-2" data-name="Tracé 219" d="M1351.711,1090.96a55.3,55.3,0,1,1-110.59,0Z" transform="translate(-1174.286 -1090.96)" fill="#ffd726"/>
          <path id="Tracé_220-2" data-name="Tracé 220" d="M1536.418,962.86a55.3,55.3,0,1,1,0-110.6Z" transform="translate(-1480.97 -786.015)" fill="#048ecb"/>
          <path id="Tracé_221-2" data-name="Tracé 221" d="M1460.735,720.825a55.3,55.3,0,1,1-110.6,0Z" transform="translate(-1338.753 -532.589)" fill="#f45b0f"/>
          <path id="Tracé_222-2" data-name="Tracé 222" d="M1406.178,1016.156H1350.73V960.707a55.451,55.451,0,0,1,55.448,55.449Z" transform="translate(-1284.496 -894.463)" fill="#048ecb"/>
          <path id="Tracé_223-2" data-name="Tracé 223" d="M1036.082,1090.96v55.453H980.638a55.445,55.445,0,0,1,55.444-55.453Z" transform="translate(-726.188 -1090.96)" fill="#f45b0f"/>
          <path id="Tracé_224-2" data-name="Tracé 224" d="M1241.12,829.862h55.443v55.452a55.436,55.436,0,0,1-55.443-55.452Z" transform="translate(-1119.138 -697.078)" fill="#f45b0f"/>
          <path id="Tracé_226-2" data-name="Tracé 226" d="M1508.691,612.377a27.726,27.726,0,0,1,27.726,27.726v27.726H1480.97V640.1A27.725,27.725,0,0,1,1508.691,612.377Z" transform="translate(-1480.97 -368.99)" fill="#048ecb"/>
          <path id="Tracé_227-2" data-name="Tracé 227" d="M1110.88,1118.687a27.723,27.723,0,0,1,27.721-27.727h27.721v55.453H1138.6A27.722,27.722,0,0,1,1110.88,1118.687Z" transform="translate(-922.664 -1090.96)" fill="#e6e6e6"/>
          <path id="Tracé_228-2" data-name="Tracé 228" d="M980.638,988.428a27.718,27.718,0,0,1,27.721-27.721h27.722v55.449h-27.722A27.722,27.722,0,0,1,980.638,988.428Z" transform="translate(-726.188 -894.463)" fill="#048ecb"/>
          <path id="Tracé_229-2" data-name="Tracé 229" d="M1394.571,851.67A22.031,22.031,0,1,1,1372.54,873.7,22.028,22.028,0,0,1,1394.571,851.67Z" transform="translate(-1306.006 -718.586)" fill="#ffd726"/>
        </g>
      </g>
    </g>
  </g>
</svg>
