<svg xmlns="http://www.w3.org/2000/svg" xmlns:xlink="http://www.w3.org/1999/xlink" width="847.57" height="660.232" viewBox="0 0 847.57 660.232">
  <defs>
    <clipPath id="clip-path">
      <ellipse id="Oval" cx="29.707" cy="30.415" rx="29.707" ry="30.415" transform="translate(0 0)" fill="#ffa780"/>
    </clipPath>
    <filter id="Rectangle_969" x="88.924" y="208.651" width="209.182" height="250.482" filterUnits="userSpaceOnUse">
      <feOffset dx="23" dy="17" input="SourceAlpha"/>
      <feGaussianBlur stdDeviation="15" result="blur"/>
      <feFlood flood-color="#1d5ae8" flood-opacity="0.161"/>
      <feComposite operator="in" in2="blur"/>
      <feComposite in="SourceGraphic"/>
    </filter>
    <clipPath id="clip-path-2">
      <ellipse id="Oval-2" data-name="Oval" cx="25.32" cy="25.923" rx="25.32" ry="25.923" fill="#ffa780"/>
    </clipPath>
    <filter id="Rectangle_969-2" x="219.571" y="230" width="191" height="226" filterUnits="userSpaceOnUse">
      <feOffset dx="-24" dy="-25" input="SourceAlpha"/>
      <feGaussianBlur stdDeviation="14" result="blur-2"/>
      <feFlood flood-color="#1d2be8" flood-opacity="0.09"/>
      <feComposite operator="in" in2="blur-2"/>
      <feComposite in="SourceGraphic"/>
    </filter>
    <clipPath id="clip-path-3">
      <ellipse id="Oval-3" data-name="Oval" cx="30.777" cy="31.51" rx="30.777" ry="31.51" transform="translate(0 0)" fill="#ffa780"/>
    </clipPath>
  </defs>
  <g id="Groupe_2121" data-name="Groupe 2121" transform="translate(-1231.43 -4085)">
    <g id="men2" transform="translate(1241.874 4115.008)">
      <g id="kaki" transform="translate(29.111 138.578)">
        <path id="Path" d="M104.581,0,0,35.843,17.929,93.468l113.117-29.88Z" transform="translate(0 0)" fill="#120a3e"/>
        <path id="Path-2" data-name="Path" d="M55.92,0H0L76.835,247.151l37.563-9.818Z" transform="translate(7.257 59.319)" fill="#120a3e"/>
      </g>
      <g id="kepala" transform="translate(26.229 0)">
        <path id="Path-3" data-name="Path" d="M26.379,0,4.336,5.3v23L0,30.032c.147.1.313.213.5.34C4.153,32.9,14.971,40.381,30.191,34.077c10.075-6.26,7.055-14.932,6.173-18.241-.051-.19-.1-.363-.136-.516L31.4,17.527Z" transform="translate(1.215 25.58)" fill="#578dff"/>
        <path id="Path-4" data-name="Path" d="M30.45,14.3l-2.342.937L23.458.646,23.176,0,12.118.8,0,3.588l.441,9.677C7.529,19.656,18.127,22.4,26.694,19.39a28.137,28.137,0,0,0,4.225-1.345Z" transform="translate(4.965 27.455)" fill="#3a6fdf"/>
        <path id="Path-5" data-name="Path" d="M35.721,9.985a8.2,8.2,0,0,0-7.637-8.724L9.394.018A8.2,8.2,0,0,0,.67,7.655L.018,17.464a8.2,8.2,0,0,0,7.636,8.724l18.691,1.241a8.2,8.2,0,0,0,8.724-7.636Z" transform="translate(1.008 0)" fill="#102054"/>
        <path id="Path-6" data-name="Path" d="M.775,14.2a15.15,15.15,0,1,1,30.24,1.9l-.744,11.859A15.151,15.151,0,0,1,.03,26.061Z" transform="translate(5.469 2.972)" fill="#578dff"/>
        <ellipse id="Oval-4" data-name="Oval" cx="1.418" cy="1.418" rx="1.418" ry="1.418" transform="translate(24.549 26.482) rotate(172.437)"/>
        <ellipse id="Oval-5" data-name="Oval" cx="1.418" cy="1.418" rx="1.418" ry="1.418" transform="translate(34.572 26.581) rotate(172.437)"/>
        <path id="Path-7" data-name="Path" d="M4.681,7.169C6.231,6.229,3.322,2,1.675,0L.049,6.042A1.281,1.281,0,0,0,1.189,7.7,6.885,6.885,0,0,0,4.681,7.169Z" transform="translate(27.251 26.376)" fill="#2149cc"/>
        <path id="Shape" d="M16.719,0a1.057,1.057,0,0,0-.625.2l-.223.163a5.975,5.975,0,0,1-3.546,1.149A6.134,6.134,0,0,1,10.8,1.321l-.434-.11a1.084,1.084,0,0,0-.272-.035,1.04,1.04,0,0,0-1.015.783,1.062,1.062,0,0,0,.777,1.279l.435.111a8.314,8.314,0,0,0,2.06.26,8.081,8.081,0,0,0,4.8-1.554l.222-.163a1.022,1.022,0,0,0,.413-.68,1.04,1.04,0,0,0-.2-.785A1.091,1.091,0,0,0,16.719,0ZM1.051.114A1.055,1.055,0,0,0,.191.552a1.02,1.02,0,0,0-.177.77,1.06,1.06,0,0,0,.44.693l.233.161A5.621,5.621,0,0,0,3.923,3.195,5.574,5.574,0,0,0,5.378,3l.171-.046a1.033,1.033,0,0,0,.728-1.288A1.077,1.077,0,0,0,4.962.935L4.791.98a3.441,3.441,0,0,1-.9.119A3.46,3.46,0,0,1,1.9.472L1.671.31A1.075,1.075,0,0,0,1.051.114Z" transform="translate(35.8 19.84) rotate(180)" fill="#102054"/>
        <path id="Path-8" data-name="Path" d="M5.621,0,0,.747C1.092,4.415,5.523,3.827,5.621,0Z" transform="translate(22.343 36.04)" fill="#fff"/>
        <ellipse id="Oval-6" data-name="Oval" cx="5.147" cy="5.147" rx="5.147" ry="5.147" transform="matrix(-1, -0.02, 0.02, -1, 10.292, 33.073)" fill="#578dff"/>
        <ellipse id="Oval-7" data-name="Oval" cx="2.574" cy="2.574" rx="2.574" ry="2.574" transform="matrix(-1, -0.02, 0.02, -1, 8.068, 30.887)" fill="#3a6fdf"/>
        <path id="Path-9" data-name="Path" d="M16.329.03A15.148,15.148,0,0,0,.261,14.2L0,18.35l4.46-6.536A4.3,4.3,0,0,1,7.485,9.967l22.8,2c.286-.035-1.007-3.092-1.858-4.527A15.132,15.132,0,0,0,16.329.03Z" transform="translate(5.986 2.972)" fill="#102054"/>
      </g>
      <g id="badan" transform="translate(0 37.846)">
        <path id="Path-10" data-name="Path" d="M45.507,0a.83.83,0,0,0-.8.869l-.6,61.766L1.532,18.468a.833.833,0,0,0-1.153-.255.843.843,0,0,0-.244,1.162L44.367,66.117a.829.829,0,0,0,1.53-.48L46.374.814A.847.847,0,0,0,45.507,0Z" transform="translate(24.179 1.02)" fill="#ff566a"/>
        <rect id="Rectangle" width="17.625" height="29.375" rx="3" transform="matrix(-0.925, 0.381, -0.381, -0.925, 84.125, 80.529)" fill="#ffb84c"/>
        <path id="Path-11" data-name="Path" d="M75.377,127.978l-31.092,7.674L11.916,44,0,2.465,1.264,2.02a35.423,35.423,0,0,1,45.9,23.968Z" transform="translate(65.172 0)" fill="#ff566a"/>
        <path id="Path-12" data-name="Path" d="M33.519,144.521,59.73,136.8a19.836,19.836,0,0,0,13.578-24.077L57.4,52.3a56.672,56.672,0,0,0-7.747-17.154L26.07,0,0,12.032Z" transform="translate(0 18.334)" fill="#ff566a"/>
        <path id="Path-13" data-name="Path" d="M37.972,30.6,13.6,0,0,61.209,7.368,89.263,51.291,74.386Z" transform="translate(20.967 52.906)" fill="#ec3d52"/>
      </g>
    </g>
    <g id="ornament2" transform="translate(1366.317 4182.995)">
      <path id="Path-14" data-name="Path" d="M72.5,16.2A21.252,21.252,0,0,0,46.8.615L16.2,8.108A21.253,21.253,0,0,0,.615,33.807L7.187,60.64a21.252,21.252,0,0,0,25.7,15.587l30.6-7.492a21.252,21.252,0,0,0,15.587-25.7Z" transform="translate(0 0)" fill="#f8fcff"/>
      <path id="Path-15" data-name="Path" d="M39.464,14.683A20.02,20.02,0,1,1,15.257,0l4.762,19.445Z" transform="translate(19.792 18.458)" fill="#0f3e9f"/>
      <path id="Path-16" data-name="Path" d="M0,.4A13.983,13.983,0,0,1,16.906,10.656L3.325,13.982Z" transform="translate(39.671 19.543)" fill="#ff566a"/>
    </g>
    <g id="tangan" transform="translate(1231.43 4180.795)">
      <path id="Path-17" data-name="Path" d="M42.365,13.543A23.69,23.69,0,0,0,8.2,3.738,17.769,17.769,0,0,0,1.039,24.691l16.74,46.816A34,34,0,0,0,67.368,89.172l8.456-5.1Z" transform="translate(0 0)" fill="#ff566a"/>
      <path id="Path-18" data-name="Path" d="M7.548,10.97,6.63,11.2A8.781,8.781,0,0,0,7.986,28.46l12.429,1.131a17.2,17.2,0,0,0,9.829-2.047L38.527,23a4.2,4.2,0,0,0-2.607-7.844l-4.942.7a8.862,8.862,0,0,1-4.7-.616l-.2-.086a8.557,8.557,0,0,1-5.189-8.6l.377-4.457A1.931,1.931,0,0,0,17.772.806L13.289,7.058A10.113,10.113,0,0,1,7.548,10.97Z" transform="translate(122.266 58.841)" fill="#578dff"/>
      <path id="Path-19" data-name="Path" d="M0,0,1.508,20.343C2.764,37.3,10.621,48.92,27.6,47.953l66.185-2.176a7.084,7.084,0,0,0,6.682-7.073V25.613a7.085,7.085,0,0,0-5.716-6.951Z" transform="translate(28.179 47.147)" fill="#ff566a"/>
    </g>
    <rect id="Rectangle_998" data-name="Rectangle 998" width="758" height="506" rx="14" transform="translate(1321 4085)" fill="#fff"/>
    <rect id="Rectangle_999" data-name="Rectangle 999" width="714" height="217" rx="14" transform="translate(1343 4105)" fill="#0026bc"/>
    <g id="Groupe_2117" data-name="Groupe 2117" transform="translate(1440.567 4158)">
      <rect id="Rectangle_969-3" data-name="Rectangle 969" width="152" height="230" rx="18" transform="translate(0.433 0)" fill="#fff"/>
      <g id="ornament1" transform="matrix(0.966, 0.259, -0.259, 0.966, 56.413, 47.632)">
        <ellipse id="Oval-8" data-name="Oval" cx="29.707" cy="30.415" rx="29.707" ry="30.415" transform="translate(0 0)" fill="#ffa780"/>
      </g>
      <path id="Path-20" data-name="Path" d="M0,4.837A4.837,4.837,0,0,1,4.837,0H41.6a4.837,4.837,0,0,1,0,9.673H4.837A4.837,4.837,0,0,1,0,4.837Z" transform="translate(53.278 126.698)" fill="#eef8ff"/>
      <g id="royal-crown-svgrepo-com" transform="translate(54.811 163.755)">
        <path id="Tracé_230" data-name="Tracé 230" d="M153.8,810.495a2.444,2.444,0,0,0-2.445-2.445H123.345a2.445,2.445,0,1,0,0,4.89h28.012A2.446,2.446,0,0,0,153.8,810.495Z" transform="translate(-115.525 -774.966)" fill="#0026bc"/>
        <path id="Tracé_231" data-name="Tracé 231" d="M2.909,79.587a1.006,1.006,0,0,0,.116,0L6.9,93.613H36.754l3.877-14.03c.04,0,.076,0,.116,0a2.907,2.907,0,1,0-2.907-2.907,2.83,2.83,0,0,0,.142.894l-7.011,4.1L23.435,69.18a2.907,2.907,0,1,0-3.21,0L12.69,81.672l-7.011-4.1a2.961,2.961,0,0,0,.142-.894,2.91,2.91,0,1,0-2.912,2.907Z" transform="translate(-0.002 -63.85)" fill="#0026bc"/>
      </g>
    </g>
    <g id="Groupe_2118" data-name="Groupe 2118" transform="translate(1342.354 4321.651)">
      <g id="Groupe_2079" data-name="Groupe 2079" transform="translate(0 0)">
        <g transform="matrix(1, 0, 0, 1, -110.92, -236.65)" filter="url(#Rectangle_969)">
          <rect id="Rectangle_969-4" data-name="Rectangle 969" width="119.182" height="160.482" rx="18" transform="translate(110.92 236.65)" fill="#fff"/>
        </g>
        <path id="Path-21" data-name="Path" d="M0,4.149A4.15,4.15,0,0,0,4.149,8.3H35.684a4.149,4.149,0,0,0,0-8.3H4.149A4.15,4.15,0,0,0,0,4.149Z" transform="translate(77.288 83.863) rotate(180)" fill="#eef8ff"/>
        <g id="royal-crown-svgrepo-com-2" data-name="royal-crown-svgrepo-com" transform="translate(38.537 107.353)" opacity="0.71">
          <path id="Tracé_230-2" data-name="Tracé 230" d="M120.9,810.147a2.1,2.1,0,0,1,2.1-2.1h24.029a2.1,2.1,0,1,1,0,4.195H123A2.1,2.1,0,0,1,120.9,810.147Z" transform="translate(-116.289 -779.67)" fill="#8c96cf"/>
          <path id="Tracé_231-2" data-name="Tracé 231" d="M34.953,77.35a.862.862,0,0,1-.1,0L31.528,89.382H5.921L2.6,77.346c-.034,0-.065,0-.1,0A2.494,2.494,0,1,1,4.99,74.856a2.428,2.428,0,0,1-.122.767l6.014,3.516,6.464-10.716a2.494,2.494,0,1,1,2.753,0l6.464,10.716,6.014-3.516a2.54,2.54,0,0,1-.122-.767,2.5,2.5,0,1,1,2.5,2.494Z" transform="translate(-0.002 -63.85)" fill="#8c96cf"/>
        </g>
        <g id="ornament1-2" data-name="ornament1" transform="matrix(-0.966, 0.259, -0.259, -0.966, 92.936, 55.557)">
          <ellipse id="Oval-9" data-name="Oval" cx="25.32" cy="25.923" rx="25.32" ry="25.923" transform="translate(0 0)" fill="#ffa780"/>
        </g>
      </g>
    </g>
    <g id="Groupe_2119" data-name="Groupe 2119" transform="translate(1517.394 4381.655)">
      <g transform="matrix(1, 0, 0, 1, -285.96, -296.65)" filter="url(#Rectangle_969-2)">
        <rect id="Rectangle_969-5" data-name="Rectangle 969" width="107" height="142" rx="18" transform="translate(285.57 297)" fill="#fff"/>
      </g>
      <g id="ornament1-3" data-name="ornament1" transform="matrix(0.966, 0.259, -0.259, 0.966, 39.207, 6.98)">
        <ellipse id="Oval-10" data-name="Oval" cx="22.612" cy="23.151" rx="22.612" ry="23.151" transform="translate(0 0)" fill="#ffa780"/>
      </g>
      <path id="Path-22" data-name="Path" d="M0,3.681A3.682,3.682,0,0,1,3.681,0H31.664a3.681,3.681,0,0,1,0,7.363H3.681A3.682,3.682,0,0,1,0,3.681Z" transform="translate(36.988 67.163)" fill="#eef8ff"/>
      <g id="royal-crown-svgrepo-com-3" data-name="royal-crown-svgrepo-com" transform="translate(38.146 95.37)">
        <path id="Tracé_230-3" data-name="Tracé 230" d="M145.944,809.911a1.86,1.86,0,0,0-1.861-1.861H122.761a1.861,1.861,0,1,0,0,3.722h21.322A1.862,1.862,0,0,0,145.944,809.911Z" transform="translate(-116.809 -782.867)" fill="#d0d6fe"/>
        <path id="Tracé_231-3" data-name="Tracé 231" d="M2.215,75.829a.766.766,0,0,0,.088,0l2.951,10.68H27.977l2.951-10.68c.03,0,.057,0,.088,0A2.213,2.213,0,1,0,28.8,73.616a2.154,2.154,0,0,0,.108.68l-5.336,3.12-5.736-9.509a2.213,2.213,0,1,0-2.443,0L9.66,77.416,4.323,74.3a2.254,2.254,0,0,0,.108-.68,2.215,2.215,0,1,0-2.217,2.213Z" transform="translate(-0.002 -63.85)" fill="#d0d6fe"/>
      </g>
    </g>
    <g id="men1" transform="translate(1461.571 4321.588)">
      <g id="kepala-2" data-name="kepala" transform="translate(148.929 140.911)">
        <path id="Path-23" data-name="Path" d="M17.615,0H0V18.92H17.615Z" transform="translate(12.272 31.734)" fill="#578dff"/>
        <path id="Path-24" data-name="Path" d="M0,.815V7.339L6.035,0Z" transform="translate(12.274 39.074)" fill="#3a6fdf"/>
        <path id="Path-25" data-name="Path" d="M23.486,11.743A11.743,11.743,0,0,0,0,11.743v6.524a11.743,11.743,0,0,0,23.486,0Z" transform="translate(6.729 13.141)" fill="#578dff"/>
        <path id="Path-26" data-name="Path" d="M1.023,10.014,5.4,16.922A9.8,9.8,0,0,0,7.4,19.2v5.26a1.794,1.794,0,1,0,3.588,0l.543-3.124.762.351,1.376,6.718A8.531,8.531,0,0,0,30.545,27.2l.835-14.207A12.271,12.271,0,0,0,19.13,0H6.534A6.524,6.524,0,0,0,1.023,10.014Z" transform="translate(2.7 7.433)" fill="#001748"/>
        <path id="Path-27" data-name="Path" d="M1.781,12.647a7.687,7.687,0,0,1,.847-10.7A7.365,7.365,0,0,1,13.157,2.5l7.2,8.363L8.977,21.01Z" transform="translate(0 0)" fill="#ff566a"/>
        <path id="Path-28" data-name="Path" d="M9.142,0l6.615,8.129L4.884,18.383.043,12.433C-.2,10.057.549,7.583,2.69,4.925A16.645,16.645,0,0,1,9.142,0Z" transform="translate(4.596 3.283)" fill="#ec3d52"/>
        <path id="Path-29" data-name="Path" d="M30.128,29.817c-6.519,7.515-13.277,3-20.792-3.52S-3.606,13.726,2.913,6.21A18.014,18.014,0,0,1,30.128,29.817Z" transform="translate(6.471 3.104)" fill="#ff566a"/>
        <path id="Path-30" data-name="Path" d="M0,4.267A4.267,4.267,0,1,0,4.268,0,4.268,4.268,0,0,0,0,4.267Z" transform="translate(12.129 27.878)" fill="#578dff"/>
        <path id="Path-31" data-name="Path" d="M0,1.97A1.97,1.97,0,1,0,1.969,0,1.97,1.97,0,0,0,0,1.97Z" transform="translate(14.098 29.847)" fill="#3a6fdf"/>
      </g>
      <g id="kaki2" transform="translate(166.931 319.412)">
        <rect id="Rectangle-2" data-name="Rectangle" width="11.2" height="24.8" transform="translate(121 58.268)" fill="#3a6fdf"/>
        <path id="Path-32" data-name="Path" d="M0,5.382,1.756,32.4a2.262,2.262,0,0,0,2.163,2.111l41.019,1.8c1.59.069,3.46-1.483,2.95-2.99l-4.58-13.571a2.278,2.278,0,0,0-1.02-1.237L24.321,8.224c-4.2-2.859-12.8-8.5-13.664-8.213L1.547,3.086A2.269,2.269,0,0,0,0,5.382Z" transform="translate(130.43 51.629)" fill="#ff566a"/>
        <path id="Path-33" data-name="Path" d="M0,5.943A10.414,10.414,0,0,1,9.824.009L34.853,1.015a10.47,10.47,0,0,1,10.02,10.868V11.9a10.348,10.348,0,0,1-2.75.219L2.3,10.4a2.252,2.252,0,0,1-2.143-2.1Z" transform="translate(132.045 75.784)" fill="#ec3d52"/>
        <path id="Path-34" data-name="Path" d="M0,1.717,5.058.01c.836-.283,9.249,5.363,13.351,8.221L35.956,18.54a2.244,2.244,0,0,1,1,1.231l4.55,13.467c.38,1.148.01,2.341-2.31,3.519-2.09.706-4.44.637-4.54.348l-3.83-11.35c-1.19-3.514,1.31-4.666.82-4.951L13.339,10.116C9.549,7.49,2.232,2.6,0,1.717Z" transform="translate(138.822 50.635)" fill="#c3e5fe"/>
        <path id="Path-35" data-name="Path" d="M3.586,15.245A1.97,1.97,0,0,0,5.31,13.126l-1.4-11.56A1.85,1.85,0,0,0,1.738.023,1.97,1.97,0,0,0,.013,2.142L1.416,13.7A1.85,1.85,0,0,0,3.586,15.245Z" transform="translate(145.208 73.363)" fill="#c3e5fe"/>
        <path id="Path-36" data-name="Path" d="M3.583,15.244a1.973,1.973,0,0,0,1.73-2.119L3.9,1.565A1.845,1.845,0,0,0,1.737.023,1.97,1.97,0,0,0,.013,2.142l1.4,11.56A1.849,1.849,0,0,0,3.583,15.244Z" transform="translate(154.845 74.769)" fill="#c3e5fe"/>
        <circle id="Oval-11" data-name="Oval" cx="4.499" cy="4.499" r="4.499" transform="matrix(-0.32, -0.947, 0.947, -0.32, 137.225, 68.718)" fill="#e2f0fa"/>
        <path id="Path-37" data-name="Path" d="M0,2.265,42.282,0l9.647,47.583,76.682,7.639-1.256,29.127-69.622.419A32.125,32.125,0,0,1,44.1,81.858,30,30,0,0,1,14.5,60.5Z" transform="translate(0)" fill="#120a3e"/>
      </g>
      <g id="kaki1" transform="translate(131.93 303.212)">
        <rect id="Rectangle-3" data-name="Rectangle" width="12.8" height="25.6" transform="translate(105.602 88.8)" fill="#3a6fdf"/>
        <path id="Path-38" data-name="Path" d="M0,5.382,1.756,32.4a2.262,2.262,0,0,0,2.163,2.11l41.018,1.8c1.6.068,3.456-1.483,2.948-2.991L43.3,19.755a2.255,2.255,0,0,0-1.018-1.237L24.321,8.225C20.125,5.366,11.518-.28,10.657.011L1.547,3.086A2.27,2.27,0,0,0,0,5.382Z" transform="translate(116.432 82.024)" fill="#ff566a"/>
        <path id="Path-39" data-name="Path" d="M0,5.944A10.416,10.416,0,0,1,9.824.009L34.849,1.015A10.47,10.47,0,0,1,44.875,11.882a.085.085,0,0,1,0,.015,10.351,10.351,0,0,1-2.753.22L2.3,10.4a2.253,2.253,0,0,1-2.143-2.1Z" transform="translate(118.047 106.179)" fill="#ec3d52"/>
        <path id="Path-40" data-name="Path" d="M0,1.717,5.058.01c.836-.282,9.249,5.364,13.351,8.222L35.958,18.54a2.267,2.267,0,0,1,1,1.232L41.5,33.239c.388,1.147.014,2.341-2.305,3.519-2.09.706-4.442.636-4.54.347l-3.831-11.35c-1.186-3.513,1.313-4.665.825-4.951L13.339,10.116C9.549,7.491,2.232,2.6,0,1.717Z" transform="translate(124.824 81.03)" fill="#c3e5fe"/>
        <path id="Path-41" data-name="Path" d="M3.586,15.244A1.97,1.97,0,0,0,5.31,13.125l-1.4-11.56A1.85,1.85,0,0,0,1.738.023,1.97,1.97,0,0,0,.013,2.142l1.4,11.56A1.85,1.85,0,0,0,3.586,15.244Z" transform="translate(131.208 103.759)" fill="#c3e5fe"/>
        <path id="Path-42" data-name="Path" d="M3.585,15.245A1.97,1.97,0,0,0,5.31,13.126L3.907,1.565A1.85,1.85,0,0,0,1.738.023,1.97,1.97,0,0,0,.013,2.142l1.4,11.56A1.85,1.85,0,0,0,3.585,15.245Z" transform="translate(140.845 105.164)" fill="#c3e5fe"/>
        <circle id="Oval-12" data-name="Oval" cx="4.499" cy="4.499" r="4.499" transform="matrix(-0.32, -0.947, 0.947, -0.32, 123.227, 99.113)" fill="#e2f0fa"/>
        <path id="Path-43" data-name="Path" d="M4.2,0H53.421L46.28,55.759,112.5,62.213V92.431l-69.291.423a33.2,33.2,0,0,1-8.588-1.066A41.6,41.6,0,0,1,.155,47.23Z" transform="translate(0 24.2)" fill="#261b65"/>
        <path id="Path-44" data-name="Path" d="M2.774,3.258,72.894,0,79.2,33.085,0,58.4Z" transform="translate(1.602)" fill="#261b65"/>
        <path id="Path-45" data-name="Path" d="M16.1,1.576a1.5,1.5,0,0,0-3-.152l-.7,13.853L2.658,3.447A1.5,1.5,0,1,0,.342,5.354l11.2,13.6a1.493,1.493,0,0,0,.649.457L10.032,61.948A21.5,21.5,0,0,0,28.516,84.329l73.078,10.256a1.5,1.5,0,1,0,.417-2.97L28.933,81.358A18.5,18.5,0,0,1,13.028,62.1Z" transform="translate(5 13.2)" fill="#0f3e9f"/>
        <path id="Path-46" data-name="Path" d="M0,1.5A1.5,1.5,0,0,1,1.5,0H22.3a1.5,1.5,0,0,1,0,3H1.5A1.5,1.5,0,0,1,0,1.5Z" transform="translate(30.9 16.9)" fill="#0f3e9f"/>
        <path id="Path-47" data-name="Path" d="M16.183,1.275a1.5,1.5,0,0,1-1.258,1.708l-13.2,2a1.5,1.5,0,1,1-.449-2.966l13.2-2A1.5,1.5,0,0,1,16.183,1.275Z" transform="translate(61.701 14.5)" fill="#0f3e9f"/>
      </g>
      <g id="tangan2" transform="translate(186.329)">
        <path id="Path-48" data-name="Path" d="M5.718,6.193l5.542,4.489L7.127,19.047,1.213,8.942A4,4,0,0,1,.694,7.4L.011,1.688A1.508,1.508,0,0,1,2.887.9L4.58,4.709A4.012,4.012,0,0,0,5.718,6.193Z" transform="translate(55.266 71.964)" fill="#578dff"/>
        <rect id="Rectangle-4" data-name="Rectangle" width="63.357" height="74.824" rx="15" transform="matrix(0.993, 0.122, -0.122, 0.993, 44.852, 0.412)" fill="#e2f0fa"/>
        <path id="Path-49" data-name="Path" d="M13.522,8.885a7.936,7.936,0,0,0-3.733,3.029,7.685,7.685,0,0,0-1.456,4.852A4.2,4.2,0,0,1,4.167,21,4.2,4.2,0,0,1,0,16.766,16.211,16.211,0,0,1,3.211,6.715,16.165,16.165,0,0,1,10.885.853,20.375,20.375,0,0,1,17.644,0h.189A4.2,4.2,0,0,1,22,4.234a4.2,4.2,0,0,1-4.167,4.234A13.28,13.28,0,0,0,13.522,8.885Z" transform="translate(55.6 15.412)" fill="#3a6fdf"/>
        <path id="Path-50" data-name="Path" d="M12.946,4.173A4.115,4.115,0,0,1,17,0,17.255,17.255,0,0,1,34,17.5,17.255,17.255,0,0,1,17,35,17.255,17.255,0,0,1,0,17.5a4.115,4.115,0,0,1,4.054-4.173A4.115,4.115,0,0,1,8.108,17.5,9.026,9.026,0,0,0,17,26.654,9.026,9.026,0,0,0,25.892,17.5,9.026,9.026,0,0,0,17,8.346,4.115,4.115,0,0,1,12.946,4.173Z" transform="translate(55.6 15.412)" fill="#ff566a"/>
        <path id="Path-51" data-name="Path" d="M21.411,12.859,17.929,30.786,0,33.7,8.133,4.234a5.765,5.765,0,0,1,9.341-2.815A12.106,12.106,0,0,1,21.411,12.859Z" transform="translate(59.336 67.801)" fill="#578dff"/>
        <path id="Path-52" data-name="Path" d="M66.417,67.975l.163.07L78.531,8.292a5,5,0,0,0-4.038-5.9L61.338.076a5,5,0,0,0-5.55,3.177L37.295,52.835,0,93.653l30.428,25.306Z" transform="translate(0 96.451)" fill="#ff566a"/>
        <rect id="Rectangle-5" data-name="Rectangle" width="19.407" height="8.435" transform="matrix(0.981, 0.194, -0.194, 0.981, 60.469, 91.212)" fill="#ec3d52"/>
      </g>
      <g id="badan-2" data-name="badan" transform="translate(129.011 186.663)">
        <path id="Path-53" data-name="Path" d="M1.81,2.4,72.092,0,73.6,11.7,0,14.4Z" transform="translate(5.742 111.749)" fill="#ec3d52"/>
        <path id="Path-54" data-name="Path" d="M88.086,24.964C88.807,12.942,82.671,0,70.6,0L24.481,8.811C10.29,12.632,4.212,17.431,3.549,28.478L.012,108.717a12,12,0,0,0,12.866,12.5l61.3-4.494a15,15,0,0,0,13.9-14.96Z" transform="translate(0 0.549)" fill="#ff566a"/>
        <path id="Path-55" data-name="Path" d="M0,51.7,14.125,0,1.79,4.525Z" transform="translate(0.418 44.549)" fill="#ec3d52"/>
        <path id="Path-56" data-name="Path" d="M0,11.233A70.621,70.621,0,0,1,31.375.743L39.989.017a4.92,4.92,0,0,1,4.722,2.528l.906,1.645a4.582,4.582,0,0,1-2.106,6.378,26.983,26.983,0,0,1-12.75,2.4Z" transform="translate(18.541)" fill="#ec3d52"/>
      </g>
      <g id="tangan1" transform="translate(0 186.328)">
        <path id="Path-57" data-name="Path" d="M35.129,2.488A14.441,14.441,0,0,0,27.6.079L23.777,0a3.272,3.272,0,0,0-1.315.241l-11,4.555a3.538,3.538,0,0,1-1.524.257L1.877,4.677A1.733,1.733,0,0,0,.158,5.719a2.456,2.456,0,0,0,1.45,3.1l11.366,4.508-.094.067,15.114,6.644L44.913,8.858Z" transform="translate(0 0)" fill="#578dff"/>
        <path id="Path-58" data-name="Path" d="M82.737,66.461A22.007,22.007,0,0,1,58.274,64.8L4.656,23.294A12,12,0,0,1,3.138,5.715L4.786,3.91A12,12,0,0,1,19.425,1.482l55.1,30.257L106.215,8.33a27.538,27.538,0,0,1,28.993-2.32,9.771,9.771,0,0,1,1.93,16.057L91.765,61.523A23.906,23.906,0,0,1,82.737,66.461Z" transform="translate(31.281 7.147)" fill="#ff566a"/>
        <rect id="Rectangle-6" data-name="Rectangle" width="20.958" height="8.435" transform="translate(25.642 20.464) rotate(-56.972)" fill="#ec3d52"/>
      </g>
    </g>
    <g id="Groupe_2120" data-name="Groupe 2120" transform="translate(-87)">
      <path id="Path-59" data-name="Path" d="M72.5,16.2A21.252,21.252,0,0,0,46.8.615L16.2,8.108A21.253,21.253,0,0,0,.615,33.807L7.187,60.64a21.252,21.252,0,0,0,25.7,15.587l30.6-7.492a21.252,21.252,0,0,0,15.587-25.7Z" transform="translate(1453.317 4182.995)" fill="#f8fcff"/>
      <path id="Path-60" data-name="Path" d="M39.464,14.683A20.02,20.02,0,1,1,15.257,0l4.762,19.445Z" transform="translate(1473.11 4201.453)" fill="#0f3e9f"/>
      <path id="Path-61" data-name="Path" d="M0,.4A13.983,13.983,0,0,1,16.906,10.656L3.325,13.982Z" transform="translate(1493.366 4202.105) rotate(3)" fill="#ff566a"/>
      <g id="tangan-2" data-name="tangan" transform="translate(1318.43 4180.795)">
        <path id="Path-62" data-name="Path" d="M42.365,13.543A23.69,23.69,0,0,0,8.2,3.738,17.769,17.769,0,0,0,1.039,24.691l16.74,46.816A34,34,0,0,0,67.368,89.172l8.456-5.1Z" transform="translate(0 0)" fill="#ff566a"/>
        <path id="Path-63" data-name="Path" d="M7.548,10.97,6.63,11.2A8.781,8.781,0,0,0,7.986,28.46l12.429,1.131a17.2,17.2,0,0,0,9.829-2.047L38.527,23a4.2,4.2,0,0,0-2.607-7.844l-4.942.7a8.862,8.862,0,0,1-4.7-.616l-.2-.086a8.557,8.557,0,0,1-5.189-8.6l.377-4.457A1.931,1.931,0,0,0,17.772.806L13.289,7.058A10.113,10.113,0,0,1,7.548,10.97Z" transform="translate(122.266 58.841)" fill="#578dff"/>
        <path id="Path-64" data-name="Path" d="M0,0,1.508,20.343C2.764,37.3,10.621,48.92,27.6,47.953l66.185-2.176a7.084,7.084,0,0,0,6.682-7.073V25.613a7.085,7.085,0,0,0-5.716-6.951Z" transform="translate(28.179 47.147)" fill="#ff566a"/>
      </g>
    </g>
  </g>
</svg>
