<svg xmlns="http://www.w3.org/2000/svg" width="167.298" height="31.976" viewBox="0 0 167.298 31.976">
  <g id="logo-dark" transform="translate(0.006 0.002)">
    <g id="Layer_1" data-name="Layer 1" transform="translate(-0.006 -0.002)">
      <path id="Path_1" data-name="Path 1" d="M29.843,8.236A15.935,15.935,0,0,0,.119,13.66,15.1,15.1,0,0,0,0,15.974v2.057a1.752,1.752,0,0,0,1.824,1.832h.121a1.856,1.856,0,0,0,1.945-1.832V15.974A11.981,11.981,0,1,1,17.862,27.787a11.724,11.724,0,0,1-2,.169,2.009,2.009,0,1,0,0,4.018,16.512,16.512,0,0,0,2-.121,15.983,15.983,0,0,0,11.981-8.116,8,8,0,0,0,0-15.477Z" transform="translate(0.006 0.002)" fill="#0026bc"/>
      <path id="Path_2" data-name="Path 2" d="M18.772,22.9a3.921,3.921,0,0,0,2-.538,4.018,4.018,0,0,0,0-6.911,3.921,3.921,0,0,0-2-.538,3.873,3.873,0,0,0-1.993.538,4.018,4.018,0,0,0,0,6.911,3.873,3.873,0,0,0,1.993.538Z" transform="translate(-2.905 -2.927)" fill="#0026bc"/>
      <path id="Path_3" data-name="Path 3" d="M71.882,16.856V25.35H68.427V18.037c0-1.888-.313-5.119-3.576-5.119-1.712,0-3.544.924-3.544,4.612V25.35H57.9V5.1h3.037v6.75a6.139,6.139,0,0,1,4.95-2.113C71.488,9.737,71.882,15.056,71.882,16.856Z" transform="translate(-11.369 -1)" fill="#0026bc"/>
      <path id="Path_4" data-name="Path 4" d="M92.75,11.4V26.587H89.736V24.9a6.2,6.2,0,0,1-4.974,2.105c-5.577,0-5.962-5.312-5.962-7.144V11.4h3.431v7.312c0,1.88.305,5.119,3.544,5.119,1.712,0,3.544-.956,3.544-4.645V11.4Z" transform="translate(-15.475 -2.238)" fill="#0026bc"/>
      <path id="Path_5" data-name="Path 5" d="M114.3,17.988v8.494h-3.431V19.169c0-1.888-.313-5.119-3.576-5.119-1.72,0-3.544.924-3.544,4.612v7.819H100.32V11.294h3.037v1.687a6.131,6.131,0,0,1,4.95-2.113C113.908,10.868,114.3,16.188,114.3,17.988Z" transform="translate(-19.702 -2.132)" fill="#0026bc"/>
      <path id="Path_6" data-name="Path 6" d="M125.6,19.168a5.766,5.766,0,0,0,.313,2.732c.675,1.093,2.25,1.093,4.162.8v2.853c-3.013.587-6.075.305-7.232-1.856-.707-1.326-.595-2.62-.595-4.363V13.012H119.49V10.369h2.756V6.15h3.375v4.219H130.1v2.644h-4.476Z" transform="translate(-23.468 -1.207)" fill="#0026bc"/>
      <path id="Path_7" data-name="Path 7" d="M148.939,22.271l.98.562a6.951,6.951,0,0,1-6.549,4.018c-4.307,0-6.951-3.062-6.951-8.036s2.612-8.036,6.951-8.036,6.919,3.07,6.919,8.357H137.641c.113,4.13,2.17,6.493,5.689,6.493A5.938,5.938,0,0,0,148.939,22.271Zm-11.25-4.243h11.25c-.305-3.857-2.274-5.995-5.625-5.995S137.923,14.227,137.69,18.028Z" transform="translate(-26.794 -2.116)" fill="#0026bc"/>
      <path id="Path_8" data-name="Path 8" d="M167.809,16.977v9.506h-1.1V23.727a6.718,6.718,0,0,1-6.075,3.174c-3.544,0-5.263-2.081-5.263-4.444,0-2.668,1.969-3.881,4.138-4.331,2.411-.474,5.625-.8,7.12-.98,0-3.431-1.237-5.095-4.677-5.095-2.555,0-4.074,1.125-4.693,3.463l-1.294-.337c.675-2.812,2.837-4.307,6.051-4.307,2.812,0,4.749,1.237,5.424,3.214A10.107,10.107,0,0,1,167.809,16.977Zm-1.181,1.318a47.032,47.032,0,0,0-6.87.932c-1.374.337-3.15,1.181-3.15,3.262,0,1.462.956,3.214,3.97,3.214,3.295,0,5.512-1.856,5.938-4.974a18.706,18.706,0,0,0,.113-2.435Z" transform="translate(-30.516 -2.134)" fill="#0026bc"/>
      <path id="Path_9" data-name="Path 9" d="M173.64,22.827l1.213-.225c.506,1.88,2.5,3.094,5.2,3.094s4.508-1.27,4.508-3.295c0-1.655-.8-2.194-4.926-3.319C175.3,17.9,174.09,17,174.09,14.976c0-2.411,2.306-4.106,5.625-4.106s5.882,1.8,6.139,4.387l-1.213.225c-.362-2.105-2.306-3.431-5.006-3.431-2.531,0-4.307,1.157-4.307,2.869,0,1.438,1.045,2.137,4.645,3.037,4.556,1.157,5.85,2.17,5.85,4.5,0,2.756-2.194,4.42-5.794,4.42C176.6,26.877,174.178,25.358,173.64,22.827Z" transform="translate(-34.105 -2.134)" fill="#0026bc"/>
      <path id="Path_10" data-name="Path 10" d="M203.449,22.271l.988.562a6.959,6.959,0,0,1-6.557,4.018c-4.307,0-6.951-3.062-6.951-8.036s2.62-8.036,6.951-8.036,6.919,3.07,6.919,8.357H192.2c.112,4.13,2.162,6.493,5.681,6.493a5.938,5.938,0,0,0,5.569-3.359ZM192.2,18.028h11.25c-.313-3.857-2.282-5.995-5.625-5.995s-5.344,2.194-5.6,5.995Z" transform="translate(-37.502 -2.116)" fill="#0026bc"/>
    </g>
  </g>
</svg>
