<svg id="logo" xmlns="http://www.w3.org/2000/svg" width="44.106" height="39.328" viewBox="0 0 44.106 39.328">
  <path id="Tracé_58" data-name="Tracé 58" d="M417.248,288.914a19.484,19.484,0,0,0-36.731,9.525v2.532a2.161,2.161,0,0,0,2.245,2.255h.148a2.285,2.285,0,0,0,2.394-2.255v-2.532a14.739,14.739,0,1,1,17.2,14.539,14.11,14.11,0,0,1-2.458.209,2.458,2.458,0,1,0,0,4.916,19.036,19.036,0,0,0,2.457-.153,19.674,19.674,0,0,0,14.748-9.986,9.838,9.838,0,0,0,0-19.05Z" transform="translate(-380.517 -278.775)" fill="#fff"/>
  <path id="Tracé_59" data-name="Tracé 59" d="M400.2,303.518a4.831,4.831,0,0,0,2.458-.664,4.907,4.907,0,0,0,0-8.505,4.877,4.877,0,0,0-4.916,0,4.908,4.908,0,0,0,0,8.505A4.831,4.831,0,0,0,400.2,303.518Z" transform="translate(-380.678 -278.938)" fill="#fff"/>
</svg>
