<svg xmlns="http://www.w3.org/2000/svg" width="274.783" height="15.21" viewBox="0 0 274.783 15.21">
  <path id="data_image_svg_xml_1_" data-name="data_image_svg+xml;… (1)" d="M3.187,8.542l19.627-.619L40.806,7.3,58.33,6.581c2.57-.1,5.257-.309,7.944-.309l11.683-.206h6.426l12.033.206,17.991.619,36.8,1.341,18.108.825,17.991.722c11.332.413,22.665.722,33.88,1.341l9.346.516,10.4.722,9,.722,3.738.309,4.323.516,6.075.619,7.711,1.238.7.1a2.691,2.691,0,0,0,2.687-1.651,2.346,2.346,0,0,0-.234-1.96,2.7,2.7,0,0,0-1.519-1.135L268.5,10.3,263.6,9.573q-7.986-.946-16.005-1.651a2.357,2.357,0,0,0,1.168-2.476A3.424,3.424,0,0,0,247.59,3.9l-1.285-.516q-1.509-.26-3.037-.413l-2.337-.309-4.439-.206-8.762-.413-18.108-.516L191.63,1.217l-9.463-.206H153.661L135.2.8C123.87.7,112.3.6,100.855.7H83.8c-6.075,0-12.15,0-18.225.206l-12.033.1-6.893.1-10.982.413-7.243.309c-8.645.516-17.174,1.032-25.7,1.754a2.406,2.406,0,0,0-1.285.619A2.077,2.077,0,0,0,.5,5.859,2.667,2.667,0,0,0,3.187,8.438" transform="translate(-0.5 -0.659)" fill="#ffa780" fill-rule="evenodd"/>
</svg>
